<svg width="24" height="24" viewBox="0 0 24 24" fill="none" xmlns="http://www.w3.org/2000/svg">
<path d="M12.0684 2.08936C15.2889 1.58326 16.8999 1.32991 17.9502 2.22803C19.0003 3.12613 19 4.75646 19 8.01611V11.0005H13.0811L15.7812 7.62549L14.2188 6.37549L10.2188 11.3755L9.71973 12.0005L10.2188 12.6255L14.2188 17.6255L15.7812 16.3755L13.0811 13.0005H19V15.9839C19 19.2436 19.0002 20.8738 17.9502 21.772C16.8999 22.6701 15.2889 22.4167 12.0684 21.9106L8.37891 21.3315C6.76622 21.0781 5.95946 20.9504 5.47949 20.3892C4.99996 19.8279 5 19.0114 5 17.3794V6.62061C5 4.98849 4.99988 4.17212 5.47949 3.61084C5.95945 3.04957 6.7663 2.92284 8.37891 2.66943L12.0684 2.08936Z" fill="#ff4a59"/>
</svg>
