<svg width="486" height="298" viewBox="0 0 486 298" fill="none" xmlns="http://www.w3.org/2000/svg">
<rect x="93.4766" y="141" width="9" height="90" transform="rotate(40.763 93.4766 141)" fill="#F68C9E"/>
<path d="M105.469 150C106.654 150 108.009 150.237 109.094 151.142C110.266 152.119 110.669 153.483 110.669 154.75C110.669 173.244 110.819 187.06 111.117 196.218V196.229L111.868 223.114V223.149C111.868 226.75 112.094 232.392 112.553 240.108L112.764 243.542L112.766 243.579L113.58 260.399H122.868C124.164 260.399 125.478 260.893 126.357 262.111C127.128 263.179 127.318 264.474 127.318 265.6C127.318 266.714 127.108 267.81 126.604 268.817L126.562 268.903L126.513 268.986C125.786 270.198 124.6 270.874 123.247 270.942L122.322 271.074L122.146 271.1H120.814C118.627 271.201 114.544 271.25 108.618 271.25C107.085 271.25 105.811 270.546 104.898 269.45L104.812 269.348L104.738 269.236C104.004 268.134 103.719 266.87 103.719 265.6V259.6C103.719 253.364 103.471 246.318 102.974 238.458L102.972 238.419C102.571 229.995 102.368 222.853 102.368 217C102.368 211.65 102.121 201.248 101.621 185.757L101.41 180.669C100.95 169.181 100.719 160.386 100.719 154.3C100.719 153.022 101.281 151.887 102.298 151.115C103.201 150.406 104.279 150 105.469 150ZM108.126 268.695C108.203 268.713 108.281 268.726 108.36 268.735L108.618 268.75V268.749C108.448 268.749 108.284 268.731 108.126 268.695ZM107.905 268.632C107.951 268.647 107.997 268.66 108.043 268.673C107.997 268.66 107.951 268.647 107.905 268.632ZM107.683 268.541C107.723 268.56 107.764 268.577 107.806 268.594C107.764 268.577 107.723 268.56 107.683 268.541ZM107.472 268.426C107.513 268.451 107.555 268.475 107.597 268.497C107.555 268.475 107.513 268.451 107.472 268.426ZM107.261 268.278C107.302 268.31 107.343 268.341 107.386 268.37C107.343 268.341 107.302 268.31 107.261 268.278ZM107.053 268.099C107.099 268.143 107.145 268.185 107.192 268.225C107.145 268.185 107.099 268.143 107.053 268.099ZM106.685 267.628C106.727 267.704 106.771 267.778 106.818 267.85C106.876 267.919 106.936 267.984 106.997 268.046C106.936 267.984 106.876 267.919 106.818 267.85C106.771 267.778 106.727 267.704 106.685 267.628ZM106.565 267.39C106.593 267.451 106.623 267.51 106.653 267.568C106.623 267.51 106.593 267.451 106.565 267.39ZM124.513 267.367C124.528 267.328 124.544 267.288 124.559 267.248C124.544 267.288 124.528 267.328 124.513 267.367ZM106.468 267.149C106.489 267.209 106.514 267.267 106.538 267.324C106.514 267.267 106.489 267.209 106.468 267.149ZM124.586 267.163C124.602 267.115 124.617 267.067 124.631 267.019C124.617 267.067 124.602 267.115 124.586 267.163ZM106.375 266.854C106.394 266.924 106.415 266.992 106.438 267.06C106.415 266.992 106.394 266.924 106.375 266.854ZM124.658 266.917C124.67 266.873 124.681 266.829 124.691 266.784C124.681 266.829 124.67 266.873 124.658 266.917ZM106.317 266.615C106.33 266.678 106.345 266.739 106.36 266.8C106.345 266.739 106.33 266.678 106.317 266.615ZM124.718 266.656C124.724 266.626 124.73 266.596 124.735 266.565C124.73 266.596 124.724 266.626 124.718 266.656ZM106.264 266.3C106.273 266.373 106.284 266.446 106.297 266.517C106.284 266.446 106.273 266.373 106.264 266.3ZM124.761 266.413C124.769 266.358 124.776 266.302 124.782 266.246C124.776 266.302 124.769 266.358 124.761 266.413ZM106.228 265.93C106.234 266.033 106.242 266.134 106.254 266.233C106.242 266.134 106.234 266.033 106.228 265.93ZM105.226 232.738C105.243 233.182 105.262 233.631 105.281 234.083C105.262 233.631 105.243 233.182 105.226 232.738ZM105.116 229.775C105.135 230.313 105.155 230.857 105.176 231.407C105.155 230.857 105.135 230.313 105.116 229.775ZM105.038 227.312C105.054 227.844 105.071 228.383 105.089 228.93C105.071 228.383 105.054 227.844 105.038 227.312ZM104.971 224.793C104.981 225.234 104.993 225.68 105.005 226.132C104.993 225.68 104.981 225.234 104.971 224.793ZM104.878 219.235C104.872 218.47 104.869 217.725 104.869 217C104.869 211.6 104.619 201.149 104.119 185.649C103.976 182.314 103.85 179.18 103.741 176.247C103.85 179.18 103.975 182.314 104.118 185.649C104.431 195.337 104.646 203.052 104.763 208.794C104.833 212.24 104.868 214.975 104.868 217L104.878 219.235ZM103.582 171.76C103.618 172.829 103.657 173.928 103.698 175.06C103.657 173.928 103.618 172.829 103.582 171.76ZM103.468 168.114C103.495 169.02 103.523 169.952 103.555 170.909C103.523 169.952 103.495 169.02 103.468 168.114ZM103.343 163.455C103.288 161.106 103.251 158.972 103.232 157.054C103.251 158.972 103.288 161.106 103.343 163.455ZM108.132 154.254C108.131 154.249 108.13 154.245 108.129 154.24C108.141 154.317 108.152 154.396 108.158 154.478L108.132 154.254ZM108.109 154.144C108.1 154.096 108.09 154.049 108.078 154.004C108.09 154.049 108.1 154.096 108.109 154.144ZM108.05 153.915C108.036 153.872 108.024 153.83 108.008 153.789C108.024 153.83 108.036 153.872 108.05 153.915ZM103.369 153.625H103.368H103.369ZM107.972 153.706C107.955 153.667 107.938 153.629 107.919 153.592C107.938 153.629 107.955 153.667 107.972 153.706ZM107.87 153.508C107.851 153.476 107.832 153.444 107.811 153.413C107.832 153.444 107.851 153.476 107.87 153.508ZM107.751 153.333C107.729 153.304 107.707 153.276 107.683 153.249C107.707 153.276 107.729 153.304 107.751 153.333ZM107.611 153.173C107.586 153.148 107.56 153.123 107.533 153.1C107.56 153.123 107.586 153.148 107.611 153.173ZM104.203 152.837C104.072 152.912 103.943 153 103.818 153.1L104.009 152.959C104.073 152.915 104.138 152.874 104.203 152.837ZM107.452 153.032C107.423 153.009 107.393 152.987 107.362 152.966C107.393 152.987 107.423 153.009 107.452 153.032ZM107.28 152.911C107.244 152.889 107.207 152.868 107.169 152.848C107.207 152.868 107.244 152.889 107.28 152.911ZM107.078 152.801C107.045 152.785 107.012 152.77 106.978 152.756C107.012 152.77 107.045 152.785 107.078 152.801ZM106.852 152.705C106.826 152.696 106.8 152.688 106.773 152.68C106.8 152.688 106.826 152.696 106.852 152.705ZM106.61 152.63C106.592 152.625 106.573 152.622 106.554 152.617C106.573 152.622 106.592 152.625 106.61 152.63ZM106.357 152.573C106.338 152.57 106.319 152.568 106.3 152.564C106.319 152.568 106.338 152.57 106.357 152.573ZM104.913 221.988C104.923 222.587 104.935 223.196 104.948 223.816C104.935 223.196 104.923 222.587 104.913 221.988ZM104.913 221.988C104.911 221.842 104.907 221.697 104.905 221.553C104.907 221.697 104.911 221.842 104.913 221.988ZM103.357 164.016C103.378 164.883 103.401 165.778 103.427 166.702C103.401 165.778 103.378 164.883 103.357 164.016ZM103.357 164.016C103.353 163.827 103.347 163.641 103.343 163.455C103.347 163.641 103.353 163.827 103.357 164.016ZM108.169 154.75C108.169 154.656 108.165 154.565 108.158 154.478C108.165 154.565 108.169 154.656 108.169 154.75Z" fill="#F68C9E"/>
<path d="M143.713 201.506C144.038 202.274 144.162 203.287 144.232 204.204C144.31 205.225 144.343 206.512 144.336 208.043L144.317 212.327L144.311 212.41C144.209 213.833 144.151 215.673 144.141 217.943C144.135 219.122 143.838 220.32 143.063 221.337C142.2 222.626 140.834 223.128 139.517 223.122C138.478 223.118 137.482 222.847 136.584 222.303C135.309 221.529 134.63 220.247 134.637 218.8C134.64 218.09 134.687 217.407 134.796 216.772L134.809 214.11C126.624 214.151 111.468 214.724 89.2859 215.839C67.3784 216.94 51.5666 217.471 41.8924 217.427L37.5962 217.407L37.5 217.399C37.0547 217.362 36.602 217.335 36.1425 217.311L36.1297 220.151C36.1236 221.473 35.9303 222.882 35.2225 224.033C34.3911 225.385 33.0328 226.087 31.503 226.08C30.1802 226.074 29.0501 225.513 28.1481 224.765L28.1466 224.766C27.238 224.033 26.466 222.921 26.4726 221.456L26.5101 213.304L26.5136 213.252C26.6223 210.9 26.6858 207.888 26.7026 204.207C26.7088 202.854 27.2152 201.654 28.0476 200.664L28.1212 200.576L28.2018 200.496C29.0845 199.621 30.2459 199.023 31.626 199.029C32.8677 199.035 34.1709 199.482 35.0663 200.664C35.8654 201.719 36.0571 203.002 36.0521 204.101L36.0372 207.444C47.0727 207.448 60.7051 207.164 76.9413 206.588L76.9564 206.587L76.97 206.588C90.9649 206.252 101.947 205.902 109.923 205.54L110.009 205.537L110.097 205.538L117.745 205.723L127.597 205.768C130.733 205.782 133.082 205.752 134.696 205.688L134.71 202.75C134.716 201.593 135.172 200.393 136.296 199.598C137.264 198.913 138.405 198.767 139.327 198.771C141.138 198.779 142.614 199.673 143.537 201.165L143.639 201.329L143.713 201.506ZM29.0852 211.447L29.0098 213.368L28.973 221.467L28.9834 221.653C28.9984 221.774 29.0317 221.892 29.0777 222.007C29.0088 221.834 28.9734 221.654 28.9742 221.468L29.0116 213.368C29.0507 212.521 29.0813 211.594 29.1087 210.586C29.1007 210.879 29.0941 211.167 29.0852 211.447ZM29.0803 222.014C29.1014 222.067 29.1257 222.118 29.1532 222.169C29.1257 222.118 29.1014 222.066 29.0803 222.014ZM29.1691 222.196C29.1959 222.244 29.2254 222.291 29.2578 222.337C29.2254 222.291 29.1958 222.244 29.1691 222.196ZM29.9376 222.994C29.8647 222.94 29.7915 222.882 29.7187 222.821C29.5345 222.672 29.385 222.517 29.2692 222.355C29.3849 222.517 29.533 222.673 29.7168 222.822C29.79 222.883 29.8644 222.939 29.9376 222.994ZM30.1862 223.162C30.252 223.203 30.3176 223.241 30.3835 223.276C30.3177 223.241 30.252 223.203 30.1862 223.162ZM30.4025 223.286C30.463 223.317 30.5235 223.346 30.584 223.372C30.5235 223.346 30.4629 223.317 30.4025 223.286ZM30.6449 223.398C30.6941 223.418 30.7433 223.436 30.7925 223.453C30.7433 223.436 30.6941 223.418 30.6449 223.398ZM30.8608 223.477C30.9093 223.491 30.9581 223.503 31.0066 223.514C30.9582 223.503 30.9093 223.492 30.8608 223.477ZM31.6308 223.574C31.6746 223.572 31.7178 223.572 31.7601 223.567C31.7178 223.572 31.6746 223.572 31.6308 223.574ZM31.8522 223.553C31.8991 223.546 31.9453 223.54 31.9902 223.53C31.9453 223.54 31.8991 223.546 31.8522 223.553ZM32.1732 223.479C32.1809 223.477 32.1889 223.475 32.1966 223.472C32.1889 223.475 32.1809 223.477 32.1732 223.479ZM32.729 223.161C32.7327 223.158 32.7362 223.154 32.7399 223.151C32.7362 223.154 32.7327 223.158 32.729 223.161ZM32.9957 222.865C33.0148 222.839 33.033 222.812 33.0513 222.785C33.033 222.812 33.0148 222.839 32.9957 222.865ZM33.1286 222.66C33.1453 222.631 33.1611 222.601 33.1769 222.571C33.1611 222.601 33.1453 222.631 33.1286 222.66ZM33.2391 222.445C33.2559 222.408 33.2717 222.37 33.2874 222.331C33.2717 222.37 33.2559 222.408 33.2391 222.445ZM33.3472 222.175C33.3565 222.148 33.3646 222.121 33.3734 222.093C33.3646 222.121 33.3565 222.148 33.3472 222.175ZM33.4285 221.911C33.4406 221.867 33.4503 221.821 33.4613 221.774C33.4503 221.821 33.4406 221.867 33.4285 221.911ZM33.5002 221.605C33.5074 221.57 33.5123 221.533 33.5189 221.496C33.5123 221.533 33.5074 221.57 33.5002 221.605ZM32.0643 201.57C31.9244 201.544 31.7748 201.53 31.6152 201.529C31.0153 201.526 30.4633 201.774 29.9611 202.272C29.4585 202.869 29.2053 203.518 29.202 204.218C29.1999 204.676 29.1962 205.124 29.1927 205.562C29.1962 205.124 29.2012 204.676 29.2033 204.219C29.2065 203.519 29.4596 202.87 29.9624 202.272C30.4646 201.775 31.0156 201.527 31.6155 201.53C31.7749 201.531 31.9246 201.544 32.0643 201.57ZM37.3203 214.88C36.9309 214.852 36.537 214.828 36.1387 214.808C36.537 214.828 36.9309 214.852 37.3203 214.88ZM32.2553 201.616C32.2141 201.604 32.1716 201.594 32.1285 201.585C32.1716 201.594 32.2141 201.604 32.2553 201.616ZM61.6108 209.564C51.5712 209.828 42.7683 209.956 35.202 209.943C42.7683 209.956 51.5712 209.828 61.6108 209.564ZM32.4544 201.688C32.4151 201.671 32.3743 201.657 32.3329 201.642C32.3743 201.657 32.4151 201.671 32.4544 201.688ZM32.6138 201.767C32.5789 201.747 32.5424 201.73 32.5055 201.712C32.5424 201.73 32.5788 201.747 32.6138 201.767ZM32.7702 201.871C32.7458 201.852 32.7205 201.835 32.695 201.819C32.7205 201.835 32.7458 201.852 32.7702 201.871ZM32.9121 201.992C32.8908 201.971 32.8683 201.952 32.846 201.933C32.8683 201.952 32.8908 201.971 32.9121 201.992ZM33.0397 202.131C33.02 202.107 32.9996 202.083 32.9787 202.06C32.9996 202.083 33.0199 202.107 33.0397 202.131ZM33.1468 202.28C33.1338 202.26 33.1209 202.24 33.1072 202.22C33.1209 202.24 33.1338 202.26 33.1468 202.28ZM33.5033 203.321C33.4994 203.295 33.4964 203.268 33.4921 203.242C33.4964 203.268 33.4994 203.295 33.5033 203.321ZM33.2539 202.47C33.2399 202.442 33.2262 202.414 33.2112 202.387C33.2262 202.414 33.2399 202.442 33.2539 202.47ZM33.4541 203.049C33.4514 203.037 33.4495 203.025 33.4467 203.013C33.4495 203.025 33.4514 203.037 33.4541 203.049ZM33.3392 202.666C33.3262 202.631 33.3138 202.597 33.2996 202.565C33.3139 202.597 33.3262 202.631 33.3392 202.666ZM33.3816 202.783C33.3876 202.802 33.3926 202.821 33.3982 202.839C33.3926 202.821 33.3876 202.802 33.3816 202.783ZM44.9312 214.922C45.1203 214.921 45.3112 214.919 45.5041 214.917C45.3112 214.919 45.1203 214.921 44.9312 214.922ZM46.2511 214.911C46.7063 214.906 47.1716 214.901 47.6468 214.894C47.1716 214.901 46.7063 214.906 46.2511 214.911ZM48.6167 214.88C48.9057 214.875 49.1982 214.87 49.4942 214.864C49.1982 214.87 48.9057 214.875 48.6167 214.88ZM50.7994 214.841C51.2511 214.832 51.7104 214.822 52.1774 214.812C51.7104 214.822 51.2511 214.832 50.7994 214.841ZM53.0962 214.79C53.2965 214.786 53.4982 214.78 53.7013 214.775C53.4982 214.78 53.2965 214.786 53.0962 214.79ZM58.4429 214.642C58.1602 214.651 57.8797 214.66 57.6013 214.668C57.8797 214.66 58.1602 214.651 58.4429 214.642ZM67.832 214.309C69.54 214.242 71.3068 214.169 73.1325 214.091C71.3068 214.169 69.5399 214.242 67.832 214.309ZM74.2288 214.044C76.2461 213.957 78.3335 213.862 80.4909 213.762C78.3335 213.862 76.2461 213.957 74.2288 214.044ZM110.035 208.038C102.033 208.401 91.0315 208.751 77.0302 209.087C75.6986 209.134 74.3839 209.177 73.087 209.221C74.3844 209.177 75.6993 209.135 77.0315 209.087C91.0331 208.751 102.035 208.401 110.037 208.038L115.887 208.179L110.035 208.038ZM123.027 211.867C121.408 211.92 119.687 211.98 117.863 212.049C119.687 211.98 121.408 211.92 123.027 211.867ZM133.607 208.223C132.026 208.264 130.018 208.279 127.585 208.268L123.033 208.247L127.586 208.268C130.019 208.279 132.026 208.263 133.607 208.223ZM137.188 219.248C137.201 219.302 137.216 219.354 137.235 219.404C137.216 219.354 137.201 219.302 137.188 219.248ZM137.252 219.447C137.269 219.491 137.289 219.534 137.312 219.576C137.29 219.534 137.269 219.491 137.252 219.447ZM137.179 217.854C137.166 217.999 137.155 218.149 137.149 218.305L137.136 218.811C137.136 218.958 137.153 219.096 137.182 219.226C137.153 219.096 137.138 218.959 137.138 218.812C137.14 218.468 137.153 218.149 137.179 217.854ZM137.333 219.616C137.358 219.661 137.386 219.704 137.417 219.746C137.386 219.704 137.358 219.661 137.333 219.616ZM137.432 219.767C137.466 219.812 137.503 219.855 137.543 219.896C137.503 219.855 137.466 219.812 137.432 219.767ZM137.882 220.165C137.759 220.09 137.651 220.006 137.558 219.913C137.604 219.959 137.652 220.004 137.705 220.045L137.881 220.164C137.941 220.201 138.003 220.235 138.066 220.267C138.004 220.235 137.942 220.202 137.882 220.165ZM137.224 217.444C137.209 217.559 137.195 217.679 137.184 217.803C137.195 217.679 137.209 217.559 137.224 217.444ZM138.096 220.282C138.147 220.308 138.199 220.333 138.251 220.356C138.199 220.333 138.147 220.308 138.096 220.282ZM137.312 213.712C137.316 212.713 137.218 212.112 137.02 211.911L136.42 211.608C136.359 211.608 136.296 211.609 136.233 211.609L136.42 211.609L137.017 211.911C137.216 212.112 137.315 212.712 137.31 213.711L137.295 217.012C137.271 217.129 137.252 217.252 137.233 217.381C137.252 217.253 137.272 217.129 137.296 217.012L137.304 215.212L137.312 213.712ZM138.297 220.375C138.346 220.396 138.395 220.415 138.445 220.433C138.395 220.415 138.346 220.396 138.297 220.375ZM138.487 220.448C138.542 220.467 138.598 220.485 138.654 220.5C138.598 220.485 138.542 220.467 138.487 220.448ZM138.891 220.558C138.941 220.568 138.992 220.577 139.042 220.584C138.992 220.577 138.941 220.568 138.891 220.558ZM138.2 201.416C137.603 201.61 137.276 201.997 137.218 202.58L137.21 202.761L137.185 208.011C136.588 208.093 135.664 208.155 134.413 208.198C135.665 208.155 136.589 208.094 137.187 208.011L137.211 202.761C137.214 202.078 137.544 201.629 138.2 201.416ZM139.53 220.622C139.385 220.622 139.243 220.612 139.104 220.594C139.17 220.603 139.238 220.61 139.306 220.615L139.529 220.623C139.573 220.623 139.617 220.619 139.659 220.617C139.617 220.619 139.574 220.622 139.53 220.622ZM141.237 219.58C141.249 219.558 141.263 219.537 141.275 219.515C141.263 219.537 141.249 219.558 141.237 219.58ZM141.338 219.389C141.351 219.362 141.365 219.335 141.377 219.307C141.365 219.335 141.351 219.362 141.338 219.389ZM141.427 219.185C141.438 219.155 141.449 219.126 141.459 219.096C141.449 219.126 141.438 219.155 141.427 219.185ZM141.509 218.935C141.512 218.927 141.514 218.919 141.516 218.911C141.514 218.919 141.512 218.927 141.509 218.935ZM138.376 201.367C138.324 201.379 138.274 201.393 138.226 201.408C138.274 201.393 138.324 201.379 138.376 201.367ZM138.596 201.321C138.812 201.286 139.052 201.271 139.318 201.272C139.506 201.273 139.685 201.292 139.855 201.327C139.684 201.292 139.505 201.271 139.316 201.27L139.062 201.276C138.896 201.283 138.74 201.298 138.596 201.321ZM141.412 202.48C141.407 202.472 141.401 202.465 141.396 202.457C141.401 202.465 141.407 202.473 141.412 202.481L141.414 202.483L141.412 202.48ZM29.9545 223.006C30.0222 223.056 30.0898 223.102 30.1575 223.145C30.0898 223.102 30.0222 223.056 29.9545 223.006ZM124.799 211.812C124.223 211.829 123.632 211.848 123.027 211.867C123.632 211.848 124.223 211.829 124.799 211.812ZM138.679 220.507C138.741 220.524 138.803 220.54 138.867 220.553C138.803 220.54 138.741 220.524 138.679 220.507ZM138.596 201.321C138.535 201.331 138.477 201.344 138.42 201.356C138.477 201.344 138.535 201.331 138.596 201.321Z" fill="#F68C9E"/>
<path d="M157.36 81.5373C153.458 73.2255 150.297 69.5722 142.633 64.8361C146.301 52.1644 150.986 47.7884 161.603 42.3359C174.583 54.3979 170.09 79.6816 157.36 81.5373Z" fill="#313131"/>
<path d="M160.998 41.3205C161.484 41.0706 162.09 41.1499 162.484 41.5154C169.323 47.8715 171.484 57.6069 170.359 65.9082C169.795 70.0733 168.395 73.9648 166.258 76.9652C164.12 79.9668 161.18 82.1536 157.551 82.6826C156.99 82.7641 156.441 82.4837 156.214 82.0003C154.283 77.888 152.572 75.0056 150.439 72.5788C148.31 70.1568 145.714 68.1335 141.94 65.8013C141.493 65.5254 141.287 65.0155 141.426 64.5345C143.284 58.1165 145.432 53.68 148.544 50.144C151.653 46.6125 155.645 44.0697 160.998 41.3205ZM161.366 43.786C156.548 46.3126 153.13 48.5976 150.476 51.6128C147.795 54.6585 145.824 58.5327 144.073 64.3397C147.579 66.5605 150.182 68.62 152.371 71.1118C154.546 73.5865 156.271 76.4401 158.087 80.2035C160.44 79.5968 162.512 78.0217 164.176 75.6849C166.056 73.0457 167.355 69.5137 167.882 65.6182C168.904 58.0803 167.004 49.5052 161.366 43.786Z" fill="#3A3A3B"/>
<path d="M145.126 32.5926C127.814 32.9584 125.907 42.5669 133.893 59.5C123.91 57.6458 114.278 57.986 106.437 55.1275C99.4546 51.8024 97.3539 51.7246 100.447 58.3417C105.964 67.0289 118.756 76.006 137.639 90.3522C175.58 118.883 157.109 173.162 98.4514 173.162C77.4823 173.858 60.6868 162.151 36.2963 151.358C29.2233 148.228 25.2001 148.886 20.3194 150.662C13.8307 112.852 50.7738 80.3779 98.4514 91.744C72.5765 72.4522 64.9418 59.7457 67.4995 32.5926C73.2406 -11.9425 145.126 -6.60735 145.126 32.5926Z" fill="#F8B0BB"/>
<path d="M107.521 127.348C108.21 126.238 109.737 125.858 110.931 126.499C117.449 129.996 121.218 134.891 122.355 140.093C123.488 145.273 121.954 150.523 118.35 154.592C111.027 162.86 95.8891 165.773 77.7328 156.032C76.539 155.391 76.1299 153.972 76.8192 152.863C77.5085 151.754 79.0351 151.374 80.2289 152.014C97.0182 161.022 109.214 157.607 114.496 151.643C117.194 148.597 118.281 144.755 117.464 141.017C116.651 137.299 113.898 133.447 108.435 130.516C107.241 129.876 106.832 128.457 107.521 127.348Z" fill="#F68C9E"/>
<path d="M83.9825 117.836C83.9818 117.836 83.9806 117.836 83.9806 120.387V117.836C82.4643 117.836 81.2348 118.978 81.2348 120.387C81.2348 121.708 82.3154 122.795 83.6997 122.925L83.9806 122.939H84.0352C84.0759 122.939 84.1389 122.94 84.2224 122.941C84.3898 122.943 84.6403 122.947 84.9614 122.954C85.6045 122.97 86.5298 123.002 87.6438 123.065C89.8815 123.192 92.8385 123.445 95.7834 123.942C98.7699 124.447 101.546 125.171 103.537 126.16C105.577 127.174 106.155 128.119 106.201 128.879C106.239 129.525 105.862 130.422 103.865 131.509C101.922 132.566 99.1211 133.397 96.0642 134.016C93.0538 134.625 90.0011 134.99 87.6828 135.202C86.5283 135.308 85.5665 135.374 84.8971 135.414C84.5626 135.434 84.3017 135.447 84.1268 135.456C84.0395 135.46 83.9736 135.463 83.9308 135.465C83.9094 135.466 83.8937 135.466 83.884 135.467H83.8733C82.3692 135.521 81.1936 136.692 81.2368 138.09C81.2802 139.488 82.5258 140.592 84.0303 140.567C84.033 140.567 84.0383 140.568 84.0459 140.568C84.063 140.568 84.0922 140.567 84.1327 140.567C84.2137 140.567 84.3395 140.568 84.5042 140.572C84.8344 140.578 85.3175 140.594 85.9033 140.634C87.0863 140.714 88.6365 140.887 90.1828 141.246C91.7554 141.611 93.1531 142.13 94.157 142.814C95.1069 143.461 95.6153 144.182 95.7444 145.081C95.784 145.357 95.7301 145.969 94.1717 146.929C92.6645 147.856 90.4083 148.655 87.8778 149.299C85.3948 149.931 82.8548 150.362 80.917 150.636C79.9529 150.773 79.1484 150.869 78.5886 150.931C78.3089 150.962 78.0908 150.984 77.9451 150.998C77.8723 151.005 77.8175 151.01 77.7822 151.013C77.7647 151.015 77.752 151.016 77.7442 151.017C77.7406 151.017 77.7378 151.017 77.7364 151.017C76.2265 151.147 75.1156 152.391 75.2559 153.794C75.3963 155.197 76.7345 156.229 78.2444 156.098L77.9899 153.558C78.2345 156.002 78.2444 156.095 78.2454 156.098H78.2473C78.2486 156.098 78.2503 156.098 78.2522 156.097C78.2561 156.097 78.2614 156.097 78.2678 156.096C78.2807 156.095 78.2986 156.094 78.3214 156.092C78.3673 156.088 78.4332 156.081 78.5174 156.073C78.6857 156.057 78.9278 156.032 79.2331 155.999C79.8438 155.931 80.7103 155.828 81.7438 155.681C83.8012 155.39 86.5672 154.923 89.3277 154.221C92.0409 153.531 94.9658 152.561 97.204 151.184C99.3907 149.838 101.647 147.609 101.187 144.406C100.836 141.961 99.4228 140.163 97.6935 138.903C100.804 138.249 104.077 137.308 106.64 135.912C109.277 134.477 111.894 132.126 111.683 128.597C111.479 125.182 108.812 122.995 106.126 121.661C103.389 120.301 99.9565 119.46 96.7653 118.921C93.5324 118.374 90.3426 118.105 87.9782 117.971C86.7913 117.904 85.8015 117.87 85.1048 117.853C84.7565 117.845 84.4808 117.84 84.2896 117.838C84.194 117.837 84.1192 117.836 84.0673 117.836H83.9825Z" fill="#F8DFDF"/>
<path d="M145.12 32.5938C128.15 33.2896 125.654 41.8722 134.137 59.7332L142.628 64.8363C146.065 52.8873 150.176 47.9523 161.598 42.3361L145.12 32.5938Z" fill="white"/>
<path d="M145.262 31.4399C145.451 31.4592 145.634 31.5182 145.796 31.6139L162.274 41.3562C162.649 41.5779 162.868 41.9683 162.851 42.381C162.833 42.7936 162.58 43.1663 162.188 43.3595C156.55 46.1316 152.839 48.6779 150.107 51.9248C147.372 55.1757 145.54 59.2236 143.839 65.1347C143.736 65.4931 143.454 65.7842 143.082 65.9175C142.709 66.0508 142.291 66.0102 141.956 65.8088L133.465 60.7057C133.261 60.5829 133.099 60.407 133.001 60.2001C130.86 55.6929 129.387 51.7197 128.669 48.2751C127.952 44.837 127.969 41.8403 128.912 39.3419C130.862 34.1737 136.449 31.7871 145.071 31.4336L145.262 31.4399ZM144.792 33.7695C136.703 34.1653 132.665 36.406 131.267 40.1094C130.525 42.0762 130.448 44.6178 131.119 47.8338C131.772 50.9666 133.119 54.659 135.136 58.947L141.885 63.0045C143.51 57.7434 145.368 53.7914 148.14 50.4959C150.84 47.2865 154.345 44.7743 159.15 42.2586L144.792 33.7695Z" fill="#3A3A3B"/>
<path d="M128.699 33.2403C128.699 36.6864 125.905 39.4806 122.459 39.4806C119.013 39.4806 116.219 36.6864 116.219 33.2403C116.219 29.7942 119.013 27 122.459 27C125.905 27 128.699 29.7942 128.699 33.2403Z" fill="white"/>
<path d="M124.707 38.1094C126.086 38.1094 127.203 36.9919 127.203 35.6133C127.203 34.2347 126.086 33.1172 124.707 33.1172C123.328 33.1172 122.211 34.2347 122.211 35.6133C122.211 36.9919 123.328 38.1094 124.707 38.1094Z" fill="#4B454C"/>
<path d="M143.713 201.506C144.038 202.274 144.162 203.287 144.232 204.204C144.31 205.225 144.343 206.512 144.336 208.043L144.317 212.327L144.311 212.41C144.209 213.833 144.151 215.673 144.141 217.943C144.135 219.122 143.838 220.32 143.063 221.337C142.2 222.626 140.834 223.128 139.517 223.122C138.478 223.118 137.482 222.847 136.584 222.303C135.309 221.529 134.63 220.247 134.637 218.8C134.64 218.09 134.687 217.407 134.796 216.772L134.809 214.11C126.624 214.151 111.468 214.724 89.2859 215.839C67.3784 216.94 51.5666 217.471 41.8924 217.427L37.5962 217.407L37.5 217.399C37.0547 217.362 36.602 217.335 36.1425 217.311L36.1297 220.151C36.1236 221.473 35.9303 222.882 35.2225 224.033C34.3911 225.385 33.0328 226.087 31.503 226.08C30.1802 226.074 29.0501 225.513 28.1481 224.765L28.1466 224.766C27.238 224.033 26.466 222.921 26.4726 221.456L26.5101 213.304L26.5136 213.252C26.6223 210.9 26.6858 207.888 26.7026 204.207C26.7088 202.854 27.2152 201.654 28.0476 200.664L28.1212 200.576L28.2018 200.496C29.0845 199.621 30.2459 199.023 31.626 199.029C32.8677 199.035 34.1709 199.482 35.0663 200.664C35.8654 201.719 36.0571 203.002 36.0521 204.101L36.0372 207.444C47.0727 207.448 60.7051 207.164 76.9413 206.588L76.9564 206.587L76.97 206.588C90.9649 206.252 101.947 205.902 109.923 205.54L110.009 205.537L110.097 205.538L117.745 205.723L127.597 205.768C130.733 205.782 133.082 205.752 134.696 205.688L134.71 202.75C134.716 201.593 135.172 200.393 136.296 199.598C137.264 198.913 138.405 198.767 139.327 198.771C141.138 198.779 142.614 199.673 143.537 201.165L143.639 201.329L143.713 201.506ZM29.0852 211.447L29.0098 213.368L28.973 221.467L28.9834 221.653C28.9984 221.774 29.0317 221.892 29.0777 222.007C29.0088 221.834 28.9734 221.654 28.9742 221.468L29.0116 213.368C29.0507 212.521 29.0813 211.594 29.1087 210.586C29.1007 210.879 29.0941 211.167 29.0852 211.447ZM29.0803 222.014C29.1014 222.067 29.1257 222.118 29.1532 222.169C29.1257 222.118 29.1014 222.066 29.0803 222.014ZM29.1691 222.196C29.1959 222.244 29.2254 222.291 29.2578 222.337C29.2254 222.291 29.1958 222.244 29.1691 222.196ZM29.9376 222.994C29.8647 222.94 29.7915 222.882 29.7187 222.821C29.5345 222.672 29.385 222.517 29.2692 222.355C29.3849 222.517 29.533 222.673 29.7168 222.822C29.79 222.883 29.8644 222.939 29.9376 222.994ZM30.1862 223.162C30.252 223.203 30.3176 223.241 30.3835 223.276C30.3177 223.241 30.252 223.203 30.1862 223.162ZM30.4025 223.286C30.463 223.317 30.5235 223.346 30.584 223.372C30.5235 223.346 30.4629 223.317 30.4025 223.286ZM30.6449 223.398C30.6941 223.418 30.7433 223.436 30.7925 223.453C30.7433 223.436 30.6941 223.418 30.6449 223.398ZM30.8608 223.477C30.9093 223.491 30.9581 223.503 31.0066 223.514C30.9582 223.503 30.9093 223.492 30.8608 223.477ZM31.6308 223.574C31.6746 223.572 31.7178 223.572 31.7601 223.567C31.7178 223.572 31.6746 223.572 31.6308 223.574ZM31.8522 223.553C31.8991 223.546 31.9453 223.54 31.9902 223.53C31.9453 223.54 31.8991 223.546 31.8522 223.553ZM32.1732 223.479C32.1809 223.477 32.1889 223.475 32.1966 223.472C32.1889 223.475 32.1809 223.477 32.1732 223.479ZM32.729 223.161C32.7327 223.158 32.7362 223.154 32.7399 223.151C32.7362 223.154 32.7327 223.158 32.729 223.161ZM32.9957 222.865C33.0148 222.839 33.033 222.812 33.0513 222.785C33.033 222.812 33.0148 222.839 32.9957 222.865ZM33.1286 222.66C33.1453 222.631 33.1611 222.601 33.1769 222.571C33.1611 222.601 33.1453 222.631 33.1286 222.66ZM33.2391 222.445C33.2559 222.408 33.2717 222.37 33.2874 222.331C33.2717 222.37 33.2559 222.408 33.2391 222.445ZM33.3472 222.175C33.3565 222.148 33.3646 222.121 33.3734 222.093C33.3646 222.121 33.3565 222.148 33.3472 222.175ZM33.4285 221.911C33.4406 221.867 33.4503 221.821 33.4613 221.774C33.4503 221.821 33.4406 221.867 33.4285 221.911ZM33.5002 221.605C33.5074 221.57 33.5123 221.533 33.5189 221.496C33.5123 221.533 33.5074 221.57 33.5002 221.605ZM32.0643 201.57C31.9244 201.544 31.7748 201.53 31.6152 201.529C31.0153 201.526 30.4633 201.774 29.9611 202.272C29.4585 202.869 29.2053 203.518 29.202 204.218C29.1999 204.676 29.1962 205.124 29.1927 205.562C29.1962 205.124 29.2012 204.676 29.2033 204.219C29.2065 203.519 29.4596 202.87 29.9624 202.272C30.4646 201.775 31.0156 201.527 31.6155 201.53C31.7749 201.531 31.9246 201.544 32.0643 201.57ZM37.3203 214.88C36.9309 214.852 36.537 214.828 36.1387 214.808C36.537 214.828 36.9309 214.852 37.3203 214.88ZM32.2553 201.616C32.2141 201.604 32.1716 201.594 32.1285 201.585C32.1716 201.594 32.2141 201.604 32.2553 201.616ZM61.6108 209.564C51.5712 209.828 42.7683 209.956 35.202 209.943C42.7683 209.956 51.5712 209.828 61.6108 209.564ZM32.4544 201.688C32.4151 201.671 32.3743 201.657 32.3329 201.642C32.3743 201.657 32.4151 201.671 32.4544 201.688ZM32.6138 201.767C32.5789 201.747 32.5424 201.73 32.5055 201.712C32.5424 201.73 32.5788 201.747 32.6138 201.767ZM32.7702 201.871C32.7458 201.852 32.7205 201.835 32.695 201.819C32.7205 201.835 32.7458 201.852 32.7702 201.871ZM32.9121 201.992C32.8908 201.971 32.8683 201.952 32.846 201.933C32.8683 201.952 32.8908 201.971 32.9121 201.992ZM33.0397 202.131C33.02 202.107 32.9996 202.083 32.9787 202.06C32.9996 202.083 33.0199 202.107 33.0397 202.131ZM33.1468 202.28C33.1338 202.26 33.1209 202.24 33.1072 202.22C33.1209 202.24 33.1338 202.26 33.1468 202.28ZM33.5033 203.321C33.4994 203.295 33.4964 203.268 33.4921 203.242C33.4964 203.268 33.4994 203.295 33.5033 203.321ZM33.2539 202.47C33.2399 202.442 33.2262 202.414 33.2112 202.387C33.2262 202.414 33.2399 202.442 33.2539 202.47ZM33.4541 203.049C33.4514 203.037 33.4495 203.025 33.4467 203.013C33.4495 203.025 33.4514 203.037 33.4541 203.049ZM33.3392 202.666C33.3262 202.631 33.3138 202.597 33.2996 202.565C33.3139 202.597 33.3262 202.631 33.3392 202.666ZM33.3816 202.783C33.3876 202.802 33.3926 202.821 33.3982 202.839C33.3926 202.821 33.3876 202.802 33.3816 202.783ZM44.9312 214.922C45.1203 214.921 45.3112 214.919 45.5041 214.917C45.3112 214.919 45.1203 214.921 44.9312 214.922ZM46.2511 214.911C46.7063 214.906 47.1716 214.901 47.6468 214.894C47.1716 214.901 46.7063 214.906 46.2511 214.911ZM48.6167 214.88C48.9057 214.875 49.1982 214.87 49.4942 214.864C49.1982 214.87 48.9057 214.875 48.6167 214.88ZM50.7994 214.841C51.2511 214.832 51.7104 214.822 52.1774 214.812C51.7104 214.822 51.2511 214.832 50.7994 214.841ZM53.0962 214.79C53.2965 214.786 53.4982 214.78 53.7013 214.775C53.4982 214.78 53.2965 214.786 53.0962 214.79ZM58.4429 214.642C58.1602 214.651 57.8797 214.66 57.6013 214.668C57.8797 214.66 58.1602 214.651 58.4429 214.642ZM67.832 214.309C69.54 214.242 71.3068 214.169 73.1325 214.091C71.3068 214.169 69.5399 214.242 67.832 214.309ZM74.2288 214.044C76.2461 213.957 78.3335 213.862 80.4909 213.762C78.3335 213.862 76.2461 213.957 74.2288 214.044ZM110.035 208.038C102.033 208.401 91.0315 208.751 77.0302 209.087C75.6986 209.134 74.3839 209.177 73.087 209.221C74.3844 209.177 75.6993 209.135 77.0315 209.087C91.0331 208.751 102.035 208.401 110.037 208.038L115.887 208.179L110.035 208.038ZM123.027 211.867C121.408 211.92 119.687 211.98 117.863 212.049C119.687 211.98 121.408 211.92 123.027 211.867ZM133.607 208.223C132.026 208.264 130.018 208.279 127.585 208.268L123.033 208.247L127.586 208.268C130.019 208.279 132.026 208.263 133.607 208.223ZM137.188 219.248C137.201 219.302 137.216 219.354 137.235 219.404C137.216 219.354 137.201 219.302 137.188 219.248ZM137.252 219.447C137.269 219.491 137.289 219.534 137.312 219.576C137.29 219.534 137.269 219.491 137.252 219.447ZM137.179 217.854C137.166 217.999 137.155 218.149 137.149 218.305L137.136 218.811C137.136 218.958 137.153 219.096 137.182 219.226C137.153 219.096 137.138 218.959 137.138 218.812C137.14 218.468 137.153 218.149 137.179 217.854ZM137.333 219.616C137.358 219.661 137.386 219.704 137.417 219.746C137.386 219.704 137.358 219.661 137.333 219.616ZM137.432 219.767C137.466 219.812 137.503 219.855 137.543 219.896C137.503 219.855 137.466 219.812 137.432 219.767ZM137.882 220.165C137.759 220.09 137.651 220.006 137.558 219.913C137.604 219.959 137.652 220.004 137.705 220.045L137.881 220.164C137.941 220.201 138.003 220.235 138.066 220.267C138.004 220.235 137.942 220.202 137.882 220.165ZM137.224 217.444C137.209 217.559 137.195 217.679 137.184 217.803C137.195 217.679 137.209 217.559 137.224 217.444ZM138.096 220.282C138.147 220.308 138.199 220.333 138.251 220.356C138.199 220.333 138.147 220.308 138.096 220.282ZM137.312 213.712C137.316 212.713 137.218 212.112 137.02 211.911L136.42 211.608C136.359 211.608 136.296 211.609 136.233 211.609L136.42 211.609L137.017 211.911C137.216 212.112 137.315 212.712 137.31 213.711L137.295 217.012C137.271 217.129 137.252 217.252 137.233 217.381C137.252 217.253 137.272 217.129 137.296 217.012L137.304 215.212L137.312 213.712ZM138.297 220.375C138.346 220.396 138.395 220.415 138.445 220.433C138.395 220.415 138.346 220.396 138.297 220.375ZM138.487 220.448C138.542 220.467 138.598 220.485 138.654 220.5C138.598 220.485 138.542 220.467 138.487 220.448ZM138.891 220.558C138.941 220.568 138.992 220.577 139.042 220.584C138.992 220.577 138.941 220.568 138.891 220.558ZM138.2 201.416C137.603 201.61 137.276 201.997 137.218 202.58L137.21 202.761L137.185 208.011C136.588 208.093 135.664 208.155 134.413 208.198C135.665 208.155 136.589 208.094 137.187 208.011L137.211 202.761C137.214 202.078 137.544 201.629 138.2 201.416ZM139.53 220.622C139.385 220.622 139.243 220.612 139.104 220.594C139.17 220.603 139.238 220.61 139.306 220.615L139.529 220.623C139.573 220.623 139.617 220.619 139.659 220.617C139.617 220.619 139.574 220.622 139.53 220.622ZM141.237 219.58C141.249 219.558 141.263 219.537 141.275 219.515C141.263 219.537 141.249 219.558 141.237 219.58ZM141.338 219.389C141.351 219.362 141.365 219.335 141.377 219.307C141.365 219.335 141.351 219.362 141.338 219.389ZM141.427 219.185C141.438 219.155 141.449 219.126 141.459 219.096C141.449 219.126 141.438 219.155 141.427 219.185ZM141.509 218.935C141.512 218.927 141.514 218.919 141.516 218.911C141.514 218.919 141.512 218.927 141.509 218.935ZM138.376 201.367C138.324 201.379 138.274 201.393 138.226 201.408C138.274 201.393 138.324 201.379 138.376 201.367ZM138.596 201.321C138.812 201.286 139.052 201.271 139.318 201.272C139.506 201.273 139.685 201.292 139.855 201.327C139.684 201.292 139.505 201.271 139.316 201.27L139.062 201.276C138.896 201.283 138.74 201.298 138.596 201.321ZM141.412 202.48C141.407 202.472 141.401 202.465 141.396 202.457C141.401 202.465 141.407 202.473 141.412 202.481L141.414 202.483L141.412 202.48ZM29.9545 223.006C30.0222 223.056 30.0898 223.102 30.1575 223.145C30.0898 223.102 30.0222 223.056 29.9545 223.006ZM124.799 211.812C124.223 211.829 123.632 211.848 123.027 211.867C123.632 211.848 124.223 211.829 124.799 211.812ZM138.679 220.507C138.741 220.524 138.803 220.54 138.867 220.553C138.803 220.54 138.741 220.524 138.679 220.507ZM138.596 201.321C138.535 201.331 138.477 201.344 138.42 201.356C138.477 201.344 138.535 201.331 138.596 201.321Z" fill="#F68C9E"/>
<path d="M157.36 81.5373C153.458 73.2255 150.297 69.5722 142.633 64.8361C146.301 52.1644 150.986 47.7884 161.603 42.3359C174.583 54.3979 170.09 79.6816 157.36 81.5373Z" fill="#313131"/>
<path d="M160.998 41.3205C161.484 41.0706 162.09 41.1499 162.484 41.5154C169.323 47.8715 171.484 57.6069 170.359 65.9082C169.795 70.0733 168.395 73.9648 166.258 76.9652C164.12 79.9668 161.18 82.1536 157.551 82.6826C156.99 82.7641 156.441 82.4837 156.214 82.0003C154.283 77.888 152.572 75.0056 150.439 72.5788C148.31 70.1568 145.714 68.1335 141.94 65.8013C141.493 65.5254 141.287 65.0155 141.426 64.5345C143.284 58.1165 145.432 53.68 148.544 50.144C151.653 46.6125 155.645 44.0697 160.998 41.3205ZM161.366 43.786C156.548 46.3126 153.13 48.5976 150.476 51.6128C147.795 54.6585 145.824 58.5327 144.073 64.3397C147.579 66.5605 150.182 68.62 152.371 71.1118C154.546 73.5865 156.271 76.4401 158.087 80.2035C160.44 79.5968 162.512 78.0217 164.176 75.6849C166.056 73.0457 167.355 69.5137 167.882 65.6182C168.904 58.0803 167.004 49.5052 161.366 43.786Z" fill="#3A3A3B"/>
<path d="M145.126 32.5926C127.814 32.9584 125.907 42.5669 133.893 59.5C123.91 57.6458 114.278 57.986 106.437 55.1275C99.4546 51.8024 97.3539 51.7246 100.447 58.3417C105.964 67.0289 118.756 76.006 137.639 90.3522C175.58 118.883 157.109 173.162 98.4514 173.162C77.4823 173.858 60.6868 162.151 36.2963 151.358C29.2233 148.228 25.2001 148.886 20.3194 150.662C13.8307 112.852 50.7738 80.3779 98.4514 91.744C72.5765 72.4522 64.9418 59.7457 67.4995 32.5926C73.2406 -11.9425 145.126 -6.60735 145.126 32.5926Z" fill="#F8B0BB"/>
<path d="M107.521 127.348C108.21 126.238 109.737 125.858 110.931 126.499C117.449 129.996 121.218 134.891 122.355 140.093C123.488 145.273 121.954 150.523 118.35 154.592C111.027 162.86 95.8891 165.773 77.7328 156.032C76.539 155.391 76.1299 153.972 76.8192 152.863C77.5085 151.754 79.0351 151.374 80.2289 152.014C97.0182 161.022 109.214 157.607 114.496 151.643C117.194 148.597 118.281 144.755 117.464 141.017C116.651 137.299 113.898 133.447 108.435 130.516C107.241 129.876 106.832 128.457 107.521 127.348Z" fill="#F68C9E"/>
<path d="M83.9825 117.836C83.9818 117.836 83.9806 117.836 83.9806 120.387V117.836C82.4643 117.836 81.2348 118.978 81.2348 120.387C81.2348 121.708 82.3154 122.795 83.6997 122.925L83.9806 122.939H84.0352C84.0759 122.939 84.1389 122.94 84.2224 122.941C84.3898 122.943 84.6403 122.947 84.9614 122.954C85.6045 122.97 86.5298 123.002 87.6438 123.065C89.8815 123.192 92.8385 123.445 95.7834 123.942C98.7699 124.447 101.546 125.171 103.537 126.16C105.577 127.174 106.155 128.119 106.201 128.879C106.239 129.525 105.862 130.422 103.865 131.509C101.922 132.566 99.1211 133.397 96.0642 134.016C93.0538 134.625 90.0011 134.99 87.6828 135.202C86.5283 135.308 85.5665 135.374 84.8971 135.414C84.5626 135.434 84.3017 135.447 84.1268 135.456C84.0395 135.46 83.9736 135.463 83.9308 135.465C83.9094 135.466 83.8937 135.466 83.884 135.467H83.8733C82.3692 135.521 81.1936 136.692 81.2368 138.09C81.2802 139.488 82.5258 140.592 84.0303 140.567C84.033 140.567 84.0383 140.568 84.0459 140.568C84.063 140.568 84.0922 140.567 84.1327 140.567C84.2137 140.567 84.3395 140.568 84.5042 140.572C84.8344 140.578 85.3175 140.594 85.9033 140.634C87.0863 140.714 88.6365 140.887 90.1828 141.246C91.7554 141.611 93.1531 142.13 94.157 142.814C95.1069 143.461 95.6153 144.182 95.7444 145.081C95.784 145.357 95.7301 145.969 94.1717 146.929C92.6645 147.856 90.4083 148.655 87.8778 149.299C85.3948 149.931 82.8548 150.362 80.917 150.636C79.9529 150.773 79.1484 150.869 78.5886 150.931C78.3089 150.962 78.0908 150.984 77.9451 150.998C77.8723 151.005 77.8175 151.01 77.7822 151.013C77.7647 151.015 77.752 151.016 77.7442 151.017C77.7406 151.017 77.7378 151.017 77.7364 151.017C76.2265 151.147 75.1156 152.391 75.2559 153.794C75.3963 155.197 76.7345 156.229 78.2444 156.098L77.9899 153.558C78.2345 156.002 78.2444 156.095 78.2454 156.098H78.2473C78.2486 156.098 78.2503 156.098 78.2522 156.097C78.2561 156.097 78.2614 156.097 78.2678 156.096C78.2807 156.095 78.2986 156.094 78.3214 156.092C78.3673 156.088 78.4332 156.081 78.5174 156.073C78.6857 156.057 78.9278 156.032 79.2331 155.999C79.8438 155.931 80.7103 155.828 81.7438 155.681C83.8012 155.39 86.5672 154.923 89.3277 154.221C92.0409 153.531 94.9658 152.561 97.204 151.184C99.3907 149.838 101.647 147.609 101.187 144.406C100.836 141.961 99.4228 140.163 97.6935 138.903C100.804 138.249 104.077 137.308 106.64 135.912C109.277 134.477 111.894 132.126 111.683 128.597C111.479 125.182 108.812 122.995 106.126 121.661C103.389 120.301 99.9565 119.46 96.7653 118.921C93.5324 118.374 90.3426 118.105 87.9782 117.971C86.7913 117.904 85.8015 117.87 85.1048 117.853C84.7565 117.845 84.4808 117.84 84.2896 117.838C84.194 117.837 84.1192 117.836 84.0673 117.836H83.9825Z" fill="#F8DFDF"/>
<path d="M145.12 32.5938C128.15 33.2896 125.654 41.8722 134.137 59.7332L142.628 64.8363C146.065 52.8873 150.176 47.9523 161.598 42.3361L145.12 32.5938Z" fill="white"/>
<path d="M145.262 31.4399C145.451 31.4592 145.634 31.5182 145.796 31.6139L162.274 41.3562C162.649 41.5779 162.868 41.9683 162.851 42.381C162.833 42.7936 162.58 43.1663 162.188 43.3595C156.55 46.1316 152.839 48.6779 150.107 51.9248C147.372 55.1757 145.54 59.2236 143.839 65.1347C143.736 65.4931 143.454 65.7842 143.082 65.9175C142.709 66.0508 142.291 66.0102 141.956 65.8088L133.465 60.7057C133.261 60.5829 133.099 60.407 133.001 60.2001C130.86 55.6929 129.387 51.7197 128.669 48.2751C127.952 44.837 127.969 41.8403 128.912 39.3419C130.862 34.1737 136.449 31.7871 145.071 31.4336L145.262 31.4399ZM144.792 33.7695C136.703 34.1653 132.665 36.406 131.267 40.1094C130.525 42.0762 130.448 44.6178 131.119 47.8338C131.772 50.9666 133.119 54.659 135.136 58.947L141.885 63.0045C143.51 57.7434 145.368 53.7914 148.14 50.4959C150.84 47.2865 154.345 44.7743 159.15 42.2586L144.792 33.7695Z" fill="#3A3A3B"/>
<path d="M128.699 33.2403C128.699 36.6864 125.905 39.4806 122.459 39.4806C119.013 39.4806 116.219 36.6864 116.219 33.2403C116.219 29.7942 119.013 27 122.459 27C125.905 27 128.699 29.7942 128.699 33.2403Z" fill="white"/>
<path d="M124.707 38.1094C126.086 38.1094 127.203 36.9919 127.203 35.6133C127.203 34.2347 126.086 33.1172 124.707 33.1172C123.328 33.1172 122.211 34.2347 122.211 35.6133C122.211 36.9919 123.328 38.1094 124.707 38.1094Z" fill="#4B454C"/>
<rect x="408.188" y="141" width="9" height="90" transform="rotate(40.763 408.188 141)" fill="#F68C9E"/>
<path d="M420.18 150C421.365 150 422.72 150.237 423.805 151.142C424.977 152.119 425.38 153.483 425.38 154.75C425.38 173.244 425.53 187.06 425.828 196.218V196.229L426.579 223.114V223.149C426.579 226.75 426.805 232.392 427.264 240.108L427.475 243.542L427.477 243.579L428.291 260.399H437.579C438.875 260.399 440.189 260.893 441.068 262.111C441.839 263.179 442.029 264.474 442.029 265.6C442.029 266.714 441.819 267.81 441.315 268.817L441.272 268.903L441.224 268.986C440.497 270.198 439.31 270.874 437.958 270.942L437.033 271.074L436.857 271.1H435.525C433.338 271.201 429.255 271.25 423.329 271.25C421.796 271.25 420.522 270.546 419.609 269.45L419.523 269.348L419.449 269.236C418.715 268.134 418.43 266.87 418.43 265.6V259.6C418.43 253.364 418.182 246.318 417.685 238.458L417.683 238.419C417.281 229.995 417.079 222.853 417.079 217C417.079 211.65 416.832 201.248 416.332 185.757L416.121 180.669C415.661 169.181 415.43 160.386 415.43 154.3C415.43 153.022 415.992 151.887 417.009 151.115C417.912 150.406 418.99 150 420.18 150ZM422.837 268.695C422.914 268.713 422.992 268.726 423.071 268.735L423.329 268.75V268.749C423.159 268.749 422.995 268.731 422.837 268.695ZM422.616 268.632C422.662 268.647 422.708 268.66 422.754 268.673C422.708 268.66 422.662 268.647 422.616 268.632ZM422.394 268.541C422.434 268.56 422.475 268.577 422.517 268.594C422.475 268.577 422.434 268.56 422.394 268.541ZM422.183 268.426C422.224 268.451 422.265 268.475 422.308 268.497C422.265 268.475 422.224 268.451 422.183 268.426ZM421.972 268.278C422.013 268.31 422.054 268.341 422.097 268.37C422.054 268.341 422.013 268.31 421.972 268.278ZM421.764 268.099C421.81 268.143 421.856 268.185 421.903 268.225C421.856 268.185 421.81 268.143 421.764 268.099ZM421.396 267.628C421.438 267.704 421.482 267.778 421.529 267.85C421.587 267.919 421.647 267.984 421.708 268.046C421.647 267.984 421.587 267.919 421.529 267.85C421.482 267.778 421.438 267.704 421.396 267.628ZM421.276 267.39C421.304 267.451 421.333 267.51 421.364 267.568C421.333 267.51 421.304 267.451 421.276 267.39ZM439.224 267.367C439.239 267.328 439.255 267.288 439.27 267.248C439.255 267.288 439.239 267.328 439.224 267.367ZM421.179 267.149C421.2 267.209 421.225 267.267 421.249 267.324C421.225 267.267 421.2 267.209 421.179 267.149ZM439.297 267.163C439.312 267.115 439.328 267.067 439.342 267.019C439.328 267.067 439.312 267.115 439.297 267.163ZM421.086 266.854C421.105 266.924 421.126 266.992 421.148 267.06C421.126 266.992 421.105 266.924 421.086 266.854ZM439.369 266.917C439.381 266.873 439.392 266.829 439.402 266.784C439.392 266.829 439.381 266.873 439.369 266.917ZM421.028 266.615C421.041 266.678 421.056 266.739 421.071 266.8C421.056 266.739 421.041 266.678 421.028 266.615ZM439.429 266.656C439.435 266.626 439.441 266.596 439.446 266.565C439.441 266.596 439.435 266.626 439.429 266.656ZM420.975 266.3C420.984 266.373 420.995 266.446 421.008 266.517C420.995 266.446 420.984 266.373 420.975 266.3ZM439.472 266.413C439.48 266.358 439.487 266.302 439.493 266.246C439.487 266.302 439.48 266.358 439.472 266.413ZM420.938 265.93C420.944 266.033 420.953 266.134 420.965 266.233C420.953 266.134 420.944 266.033 420.938 265.93ZM419.937 232.738C419.954 233.182 419.973 233.631 419.992 234.083C419.973 233.631 419.954 233.182 419.937 232.738ZM419.827 229.775C419.846 230.313 419.866 230.857 419.887 231.407C419.866 230.857 419.846 230.313 419.827 229.775ZM419.749 227.312C419.765 227.844 419.782 228.383 419.8 228.93C419.782 228.383 419.765 227.844 419.749 227.312ZM419.682 224.793C419.692 225.234 419.704 225.68 419.716 226.132C419.704 225.68 419.692 225.234 419.682 224.793ZM419.589 219.235C419.583 218.47 419.58 217.725 419.58 217C419.58 211.6 419.33 201.149 418.83 185.649C418.687 182.314 418.561 179.18 418.452 176.247C418.561 179.18 418.686 182.314 418.829 185.649C419.142 195.337 419.356 203.052 419.474 208.794C419.544 212.24 419.579 214.975 419.579 217L419.589 219.235ZM418.293 171.76C418.329 172.829 418.368 173.928 418.409 175.06C418.368 173.928 418.329 172.829 418.293 171.76ZM418.179 168.114C418.206 169.02 418.234 169.952 418.266 170.909C418.234 169.952 418.206 169.02 418.179 168.114ZM418.054 163.455C417.999 161.106 417.962 158.972 417.943 157.054C417.962 158.972 417.999 161.106 418.054 163.455ZM422.843 154.254C422.842 154.249 422.841 154.245 422.84 154.24C422.852 154.317 422.863 154.396 422.869 154.478L422.843 154.254ZM422.82 154.144C422.811 154.096 422.801 154.049 422.789 154.004C422.801 154.049 422.811 154.096 422.82 154.144ZM422.761 153.915C422.747 153.872 422.735 153.83 422.719 153.789C422.735 153.83 422.747 153.872 422.761 153.915ZM418.08 153.625H418.079H418.08ZM422.683 153.706C422.666 153.667 422.649 153.629 422.63 153.592C422.649 153.629 422.666 153.667 422.683 153.706ZM422.581 153.508C422.562 153.476 422.543 153.444 422.521 153.413C422.543 153.444 422.562 153.476 422.581 153.508ZM422.462 153.333C422.44 153.304 422.417 153.276 422.394 153.249C422.417 153.276 422.44 153.304 422.462 153.333ZM422.322 153.173C422.297 153.148 422.271 153.123 422.244 153.1C422.271 153.123 422.297 153.148 422.322 153.173ZM418.914 152.837C418.783 152.912 418.654 153 418.529 153.1L418.72 152.959C418.784 152.915 418.848 152.874 418.914 152.837ZM422.163 153.032C422.134 153.009 422.104 152.987 422.073 152.966C422.104 152.987 422.134 153.009 422.163 153.032ZM421.991 152.911C421.955 152.889 421.918 152.868 421.88 152.848C421.918 152.868 421.955 152.889 421.991 152.911ZM421.789 152.801C421.756 152.785 421.723 152.77 421.688 152.756C421.723 152.77 421.756 152.785 421.789 152.801ZM421.562 152.705C421.537 152.696 421.511 152.688 421.484 152.68C421.511 152.688 421.537 152.696 421.562 152.705ZM421.321 152.63C421.303 152.625 421.284 152.622 421.265 152.617C421.284 152.622 421.303 152.625 421.321 152.63ZM421.068 152.573C421.049 152.57 421.03 152.568 421.011 152.564C421.03 152.568 421.049 152.57 421.068 152.573ZM419.624 221.988C419.634 222.587 419.646 223.196 419.659 223.816C419.646 223.196 419.634 222.587 419.624 221.988ZM419.624 221.988C419.622 221.842 419.618 221.697 419.616 221.553C419.618 221.697 419.622 221.842 419.624 221.988ZM418.068 164.016C418.089 164.883 418.112 165.778 418.138 166.702C418.112 165.778 418.089 164.883 418.068 164.016ZM418.068 164.016C418.064 163.827 418.058 163.641 418.054 163.455C418.058 163.641 418.064 163.827 418.068 164.016ZM422.88 154.75C422.88 154.656 422.876 154.565 422.869 154.478C422.876 154.565 422.88 154.656 422.88 154.75Z" fill="#F68C9E"/>
<path d="M458.424 201.506C458.749 202.274 458.873 203.287 458.943 204.204C459.021 205.225 459.054 206.512 459.047 208.043L459.028 212.327L459.022 212.41C458.92 213.833 458.862 215.673 458.852 217.943C458.846 219.122 458.549 220.32 457.774 221.337C456.91 222.626 455.545 223.128 454.228 223.122C453.189 223.118 452.193 222.847 451.295 222.303C450.02 221.529 449.341 220.247 449.348 218.8C449.351 218.09 449.397 217.407 449.507 216.772L449.52 214.11C441.335 214.151 426.179 214.724 403.997 215.839C382.089 216.94 366.278 217.471 356.603 217.427L352.307 217.407L352.211 217.399C351.766 217.362 351.313 217.335 350.853 217.311L350.841 220.151C350.835 221.473 350.641 222.882 349.933 224.033C349.102 225.385 347.744 226.087 346.214 226.08C344.891 226.074 343.761 225.513 342.859 224.765L342.858 224.766C341.949 224.033 341.177 222.921 341.184 221.456L341.221 213.304L341.225 213.252C341.333 210.9 341.397 207.888 341.414 204.207C341.42 202.854 341.926 201.654 342.759 200.664L342.832 200.576L342.913 200.496C343.795 199.621 344.957 199.023 346.337 199.029C347.579 199.035 348.882 199.482 349.777 200.664C350.576 201.719 350.768 203.002 350.763 204.101L350.748 207.444C361.784 207.448 375.416 207.164 391.652 206.588L391.667 206.587L391.681 206.588C405.676 206.252 416.658 205.902 424.634 205.54L424.72 205.537L424.808 205.538L432.456 205.723L442.308 205.768C445.444 205.782 447.793 205.752 449.407 205.688L449.421 202.75C449.427 201.593 449.883 200.393 451.007 199.598C451.975 198.913 453.116 198.767 454.038 198.771C455.849 198.779 457.325 199.673 458.248 201.165L458.35 201.329L458.424 201.506ZM343.796 211.447L343.721 213.368L343.684 221.467L343.694 221.653C343.709 221.774 343.743 221.892 343.789 222.007C343.72 221.834 343.684 221.654 343.685 221.468L343.723 213.368C343.762 212.521 343.792 211.594 343.82 210.586C343.812 210.879 343.805 211.167 343.796 211.447ZM343.791 222.014C343.812 222.067 343.837 222.118 343.864 222.169C343.837 222.118 343.812 222.066 343.791 222.014ZM343.88 222.196C343.907 222.244 343.936 222.291 343.969 222.337C343.936 222.291 343.907 222.244 343.88 222.196ZM344.649 222.994C344.576 222.94 344.502 222.882 344.43 222.821C344.245 222.672 344.096 222.517 343.98 222.355C344.096 222.517 344.244 222.673 344.428 222.822C344.501 222.883 344.575 222.939 344.649 222.994ZM344.897 223.162C344.963 223.203 345.029 223.241 345.094 223.276C345.029 223.241 344.963 223.203 344.897 223.162ZM345.113 223.286C345.174 223.317 345.234 223.346 345.295 223.372C345.234 223.346 345.174 223.317 345.113 223.286ZM345.356 223.398C345.405 223.418 345.454 223.436 345.503 223.453C345.454 223.436 345.405 223.418 345.356 223.398ZM345.572 223.477C345.62 223.491 345.669 223.503 345.718 223.514C345.669 223.503 345.62 223.492 345.572 223.477ZM346.342 223.574C346.386 223.572 346.429 223.572 346.471 223.567C346.429 223.572 346.386 223.572 346.342 223.574ZM346.563 223.553C346.61 223.546 346.656 223.54 346.701 223.53C346.656 223.54 346.61 223.546 346.563 223.553ZM346.884 223.479C346.892 223.477 346.9 223.475 346.907 223.472C346.9 223.475 346.892 223.477 346.884 223.479ZM347.44 223.161C347.444 223.158 347.447 223.154 347.451 223.151C347.447 223.154 347.444 223.158 347.44 223.161ZM347.707 222.865C347.726 222.839 347.744 222.812 347.762 222.785C347.744 222.812 347.726 222.839 347.707 222.865ZM347.84 222.66C347.856 222.631 347.872 222.601 347.888 222.571C347.872 222.601 347.856 222.631 347.84 222.66ZM347.95 222.445C347.967 222.408 347.983 222.37 347.998 222.331C347.983 222.37 347.967 222.408 347.95 222.445ZM348.058 222.175C348.067 222.148 348.076 222.121 348.084 222.093C348.076 222.121 348.067 222.148 348.058 222.175ZM348.139 221.911C348.151 221.867 348.161 221.821 348.172 221.774C348.161 221.821 348.151 221.867 348.139 221.911ZM348.211 221.605C348.218 221.57 348.223 221.533 348.23 221.496C348.223 221.533 348.218 221.57 348.211 221.605ZM346.775 201.57C346.635 201.544 346.486 201.53 346.326 201.529C345.726 201.526 345.174 201.774 344.672 202.272C344.169 202.869 343.916 203.518 343.913 204.218C343.911 204.676 343.907 205.124 343.904 205.562C343.907 205.124 343.912 204.676 343.914 204.219C343.917 203.519 344.171 202.87 344.673 202.272C345.176 201.775 345.727 201.527 346.326 201.53C346.486 201.531 346.636 201.544 346.775 201.57ZM352.031 214.88C351.642 214.852 351.248 214.828 350.85 214.808C351.248 214.828 351.642 214.852 352.031 214.88ZM346.966 201.616C346.925 201.604 346.883 201.594 346.839 201.585C346.883 201.594 346.925 201.604 346.966 201.616ZM376.322 209.564C366.282 209.828 357.479 209.956 349.913 209.943C357.479 209.956 366.282 209.828 376.322 209.564ZM347.165 201.688C347.126 201.671 347.085 201.657 347.044 201.642C347.085 201.657 347.126 201.671 347.165 201.688ZM347.325 201.767C347.29 201.747 347.253 201.73 347.216 201.712C347.253 201.73 347.29 201.747 347.325 201.767ZM347.481 201.871C347.457 201.852 347.431 201.835 347.406 201.819C347.431 201.835 347.457 201.852 347.481 201.871ZM347.623 201.992C347.602 201.971 347.579 201.952 347.557 201.933C347.579 201.952 347.602 201.971 347.623 201.992ZM347.751 202.131C347.731 202.107 347.71 202.083 347.69 202.06C347.711 202.083 347.731 202.107 347.751 202.131ZM347.858 202.28C347.845 202.26 347.832 202.24 347.818 202.22C347.832 202.24 347.845 202.26 347.858 202.28ZM348.214 203.321C348.21 203.295 348.207 203.268 348.203 203.242C348.207 203.268 348.21 203.295 348.214 203.321ZM347.965 202.47C347.951 202.442 347.937 202.414 347.922 202.387C347.937 202.414 347.951 202.442 347.965 202.47ZM348.165 203.049C348.162 203.037 348.16 203.025 348.158 203.013C348.16 203.025 348.162 203.037 348.165 203.049ZM348.05 202.666C348.037 202.631 348.025 202.597 348.011 202.565C348.025 202.597 348.037 202.631 348.05 202.666ZM348.093 202.783C348.099 202.802 348.103 202.821 348.109 202.839C348.103 202.821 348.099 202.802 348.093 202.783ZM359.642 214.922C359.831 214.921 360.022 214.919 360.215 214.917C360.022 214.919 359.831 214.921 359.642 214.922ZM360.962 214.911C361.417 214.906 361.883 214.901 362.358 214.894C361.883 214.901 361.417 214.906 360.962 214.911ZM363.328 214.88C363.617 214.875 363.909 214.87 364.205 214.864C363.909 214.87 363.617 214.875 363.328 214.88ZM365.51 214.841C365.962 214.832 366.421 214.822 366.888 214.812C366.421 214.822 365.962 214.832 365.51 214.841ZM367.807 214.79C368.007 214.786 368.209 214.78 368.412 214.775C368.209 214.78 368.007 214.786 367.807 214.79ZM373.154 214.642C372.871 214.651 372.591 214.66 372.312 214.668C372.591 214.66 372.871 214.651 373.154 214.642ZM382.543 214.309C384.251 214.242 386.018 214.169 387.843 214.091C386.018 214.169 384.251 214.242 382.543 214.309ZM388.94 214.044C390.957 213.957 393.044 213.862 395.202 213.762C393.044 213.862 390.957 213.957 388.94 214.044ZM424.746 208.038C416.744 208.401 405.742 208.751 391.741 209.087C390.41 209.134 389.095 209.177 387.798 209.221C389.095 209.177 390.41 209.135 391.742 209.087C405.744 208.751 416.746 208.401 424.748 208.038L430.598 208.179L424.746 208.038ZM437.738 211.867C436.119 211.92 434.398 211.98 432.574 212.049C434.398 211.98 436.119 211.92 437.738 211.867ZM448.318 208.223C446.737 208.264 444.729 208.279 442.295 208.268L437.744 208.247L442.297 208.268C444.73 208.279 446.737 208.263 448.318 208.223ZM451.899 219.248C451.912 219.302 451.927 219.354 451.946 219.404C451.927 219.354 451.912 219.302 451.899 219.248ZM451.963 219.447C451.98 219.491 452 219.534 452.022 219.576C452 219.534 451.98 219.491 451.963 219.447ZM451.89 217.854C451.877 217.999 451.866 218.149 451.86 218.305L451.847 218.811C451.846 218.958 451.864 219.096 451.893 219.226C451.864 219.096 451.849 218.959 451.849 218.812C451.851 218.468 451.864 218.149 451.89 217.854ZM452.044 219.616C452.069 219.661 452.097 219.704 452.128 219.746C452.097 219.704 452.069 219.661 452.044 219.616ZM452.143 219.767C452.177 219.812 452.214 219.855 452.254 219.896C452.214 219.855 452.177 219.812 452.143 219.767ZM452.593 220.165C452.47 220.09 452.362 220.006 452.269 219.913C452.315 219.959 452.363 220.004 452.416 220.045L452.592 220.164C452.652 220.201 452.714 220.235 452.777 220.267C452.715 220.235 452.653 220.202 452.593 220.165ZM451.935 217.444C451.919 217.559 451.906 217.679 451.895 217.803C451.906 217.679 451.919 217.559 451.935 217.444ZM452.807 220.282C452.858 220.308 452.91 220.333 452.962 220.356C452.91 220.333 452.858 220.308 452.807 220.282ZM452.023 213.712C452.027 212.713 451.929 212.112 451.73 211.911L451.131 211.608C451.069 211.608 451.007 211.609 450.944 211.609L451.13 211.609L451.728 211.911C451.927 212.112 452.026 212.712 452.021 213.711L452.006 217.012C451.982 217.129 451.963 217.252 451.944 217.381C451.963 217.253 451.983 217.129 452.007 217.012L452.015 215.212L452.023 213.712ZM453.008 220.375C453.057 220.396 453.106 220.415 453.156 220.433C453.106 220.415 453.057 220.396 453.008 220.375ZM453.198 220.448C453.253 220.467 453.309 220.485 453.365 220.5C453.309 220.485 453.253 220.467 453.198 220.448ZM453.602 220.558C453.652 220.568 453.703 220.577 453.753 220.584C453.703 220.577 453.652 220.568 453.602 220.558ZM452.911 201.416C452.314 201.61 451.987 201.997 451.929 202.58L451.921 202.761L451.896 208.011C451.299 208.093 450.375 208.155 449.124 208.198C450.376 208.155 451.3 208.094 451.898 208.011L451.922 202.761C451.925 202.078 452.255 201.629 452.911 201.416ZM454.241 220.622C454.096 220.622 453.954 220.612 453.815 220.594C453.881 220.603 453.949 220.61 454.017 220.615L454.24 220.623C454.284 220.623 454.328 220.619 454.37 220.617C454.328 220.619 454.285 220.622 454.241 220.622ZM455.948 219.58C455.96 219.558 455.974 219.537 455.986 219.515C455.974 219.537 455.96 219.558 455.948 219.58ZM456.049 219.389C456.062 219.362 456.076 219.335 456.088 219.307C456.076 219.335 456.062 219.362 456.049 219.389ZM456.138 219.185C456.149 219.155 456.16 219.126 456.17 219.096C456.16 219.126 456.149 219.155 456.138 219.185ZM456.22 218.935C456.223 218.927 456.225 218.919 456.227 218.911C456.225 218.919 456.223 218.927 456.22 218.935ZM453.087 201.367C453.035 201.379 452.985 201.393 452.937 201.408C452.985 201.393 453.035 201.379 453.087 201.367ZM453.307 201.321C453.522 201.286 453.763 201.271 454.029 201.272C454.217 201.273 454.396 201.292 454.566 201.327C454.395 201.292 454.216 201.271 454.027 201.27L453.773 201.276C453.607 201.283 453.451 201.298 453.307 201.321ZM456.123 202.48C456.118 202.472 456.112 202.465 456.107 202.457C456.112 202.465 456.118 202.473 456.123 202.481L456.125 202.483L456.123 202.48ZM344.665 223.006C344.733 223.056 344.801 223.102 344.868 223.145C344.801 223.102 344.733 223.056 344.665 223.006ZM439.51 211.812C438.934 211.829 438.343 211.848 437.738 211.867C438.343 211.848 438.934 211.829 439.51 211.812ZM453.39 220.507C453.452 220.524 453.514 220.54 453.578 220.553C453.514 220.54 453.452 220.524 453.39 220.507ZM453.307 201.321C453.246 201.331 453.188 201.344 453.131 201.356C453.188 201.344 453.246 201.331 453.307 201.321Z" fill="#F68C9E"/>
<path d="M472.063 81.5373C468.161 73.2255 465 69.5722 457.336 64.8361C461.004 52.1644 465.689 47.7884 476.306 42.3359C489.286 54.3979 484.793 79.6816 472.063 81.5373Z" fill="#313131"/>
<path d="M475.701 41.3205C476.188 41.0706 476.793 41.1499 477.187 41.5154C484.027 47.8715 486.187 57.6069 485.062 65.9082C484.498 70.0733 483.098 73.9648 480.961 76.9652C478.823 79.9668 475.883 82.1536 472.254 82.6826C471.693 82.7641 471.144 82.4837 470.917 82.0003C468.987 77.888 467.275 75.0056 465.142 72.5788C463.014 70.1568 460.417 68.1335 456.643 65.8013C456.196 65.5254 455.99 65.0155 456.129 64.5345C457.987 58.1165 460.135 53.68 463.248 50.144C466.356 46.6125 470.348 44.0697 475.701 41.3205ZM476.069 43.786C471.252 46.3126 467.833 48.5976 465.179 51.6128C462.499 54.6585 460.527 58.5327 458.776 64.3397C462.282 66.5605 464.885 68.62 467.075 71.1118C469.249 73.5865 470.974 76.4401 472.79 80.2035C475.144 79.5968 477.215 78.0217 478.879 75.6849C480.759 73.0457 482.058 69.5137 482.586 65.6182C483.607 58.0803 481.707 49.5052 476.069 43.786Z" fill="#3A3A3B"/>
<path d="M459.829 32.5926C442.517 32.9584 440.61 42.5669 448.596 59.5C438.613 57.6458 428.981 57.986 421.14 55.1275C414.158 51.8024 412.057 51.7246 415.15 58.3417C420.667 67.0289 433.459 76.006 452.342 90.3522C490.283 118.883 471.812 173.162 413.155 173.162C392.185 173.858 375.39 162.151 350.999 151.358C343.926 148.228 339.903 148.886 335.023 150.662C328.534 112.852 365.477 80.3779 413.155 91.744C387.28 72.4522 379.645 59.7457 382.203 32.5926C387.944 -11.9425 459.829 -6.60735 459.829 32.5926Z" fill="#F8B0BB"/>
<path d="M422.224 127.348C422.914 126.238 424.44 125.858 425.634 126.499C432.152 129.996 435.921 134.891 437.059 140.093C438.191 145.273 436.657 150.523 433.053 154.592C425.73 162.86 410.592 165.773 392.436 156.032C391.242 155.391 390.833 153.972 391.522 152.863C392.212 151.754 393.738 151.374 394.932 152.014C411.721 161.022 423.917 157.607 429.199 151.643C431.898 148.597 432.984 144.755 432.167 141.017C431.354 137.299 428.601 133.447 423.138 130.516C421.944 129.876 421.535 128.457 422.224 127.348Z" fill="#F68C9E"/>
<path d="M398.686 117.836C398.685 117.836 398.684 117.836 398.684 120.387V117.836C397.167 117.836 395.938 118.978 395.938 120.387C395.938 121.708 397.019 122.795 398.403 122.925L398.684 122.939H398.738C398.779 122.939 398.842 122.94 398.925 122.941C399.093 122.943 399.343 122.947 399.665 122.954C400.308 122.97 401.233 123.002 402.347 123.065C404.585 123.192 407.542 123.445 410.487 123.942C413.473 124.447 416.25 125.171 418.24 126.16C420.281 127.174 420.858 128.119 420.904 128.879C420.942 129.525 420.565 130.422 418.568 131.509C416.625 132.566 413.824 133.397 410.767 134.016C407.757 134.625 404.704 134.99 402.386 135.202C401.231 135.308 400.27 135.374 399.6 135.414C399.266 135.434 399.005 135.447 398.83 135.456C398.743 135.46 398.677 135.463 398.634 135.465C398.613 135.466 398.597 135.466 398.587 135.467H398.576C397.072 135.521 395.897 136.692 395.94 138.09C395.983 139.488 397.229 140.592 398.733 140.567C398.736 140.567 398.741 140.568 398.749 140.568C398.766 140.568 398.795 140.567 398.836 140.567C398.917 140.567 399.043 140.568 399.207 140.572C399.538 140.578 400.021 140.594 400.606 140.634C401.789 140.714 403.34 140.887 404.886 141.246C406.459 141.611 407.856 142.13 408.86 142.814C409.81 143.461 410.318 144.182 410.448 145.081C410.487 145.357 410.433 145.969 408.875 146.929C407.368 147.856 405.111 148.655 402.581 149.299C400.098 149.931 397.558 150.362 395.62 150.636C394.656 150.773 393.851 150.869 393.292 150.931C393.012 150.962 392.794 150.984 392.648 150.998C392.575 151.005 392.521 151.01 392.485 151.013C392.468 151.015 392.455 151.016 392.447 151.017C392.444 151.017 392.441 151.017 392.44 151.017C390.93 151.147 389.819 152.391 389.959 153.794C390.099 155.197 391.438 156.229 392.948 156.098L392.693 153.558C392.938 156.002 392.948 156.095 392.949 156.098H392.95C392.952 156.098 392.953 156.098 392.955 156.097C392.959 156.097 392.965 156.097 392.971 156.096C392.984 156.095 393.002 156.094 393.025 156.092C393.07 156.088 393.136 156.081 393.221 156.073C393.389 156.057 393.631 156.032 393.936 155.999C394.547 155.931 395.413 155.828 396.447 155.681C398.504 155.39 401.27 154.923 404.031 154.221C406.744 153.531 409.669 152.561 411.907 151.184C414.094 149.838 416.35 147.609 415.89 144.406C415.539 141.961 414.126 140.163 412.397 138.903C415.507 138.249 418.78 137.308 421.344 135.912C423.98 134.477 426.597 132.126 426.386 128.597C426.182 125.182 423.515 122.995 420.829 121.661C418.092 120.301 414.66 119.46 411.468 118.921C408.236 118.374 405.046 118.105 402.681 117.971C401.494 117.904 400.505 117.87 399.808 117.853C399.46 117.845 399.184 117.84 398.993 117.838C398.897 117.837 398.822 117.836 398.77 117.836H398.686Z" fill="#F8DFDF"/>
<path d="M459.824 32.5938C442.853 33.2896 440.357 41.8722 448.841 59.7332L457.331 64.8363C460.768 52.8873 464.879 47.9523 476.302 42.3361L459.824 32.5938Z" fill="white"/>
<path d="M459.965 31.4399C460.154 31.4592 460.338 31.5182 460.499 31.6139L476.977 41.3562C477.352 41.5779 477.572 41.9683 477.554 42.381C477.536 42.7936 477.284 43.1663 476.891 43.3595C471.253 46.1316 467.542 48.6779 464.81 51.9248C462.075 55.1757 460.243 59.2236 458.543 65.1347C458.439 65.4931 458.157 65.7842 457.785 65.9175C457.413 66.0508 456.994 66.0102 456.659 65.8088L448.168 60.7057C447.964 60.5829 447.802 60.407 447.704 60.2001C445.563 55.6929 444.09 51.7197 443.372 48.2751C442.655 44.837 442.672 41.8403 443.615 39.3419C445.565 34.1737 451.153 31.7871 459.774 31.4336L459.965 31.4399ZM459.495 33.7695C451.406 34.1653 447.368 36.406 445.97 40.1094C445.228 42.0762 445.152 44.6178 445.822 47.8338C446.476 50.9666 447.822 54.659 449.839 58.947L456.589 63.0045C458.213 57.7434 460.071 53.7914 462.843 50.4959C465.544 47.2865 469.048 44.7743 473.854 42.2586L459.495 33.7695Z" fill="#3A3A3B"/>
<path d="M443.402 33.2403C443.402 36.6864 440.608 39.4806 437.162 39.4806C433.716 39.4806 430.922 36.6864 430.922 33.2403C430.922 29.7942 433.716 27 437.162 27C440.608 27 443.402 29.7942 443.402 33.2403Z" fill="white"/>
<path d="M439.41 38.1094C440.789 38.1094 441.906 36.9919 441.906 35.6133C441.906 34.2347 440.789 33.1172 439.41 33.1172C438.032 33.1172 436.914 34.2347 436.914 35.6133C436.914 36.9919 438.032 38.1094 439.41 38.1094Z" fill="#4B454C"/>
<path d="M458.424 201.506C458.749 202.274 458.873 203.287 458.943 204.204C459.021 205.225 459.054 206.512 459.047 208.043L459.028 212.327L459.022 212.41C458.92 213.833 458.862 215.673 458.852 217.943C458.846 219.122 458.549 220.32 457.774 221.337C456.91 222.626 455.545 223.128 454.228 223.122C453.189 223.118 452.193 222.847 451.295 222.303C450.02 221.529 449.341 220.247 449.348 218.8C449.351 218.09 449.397 217.407 449.507 216.772L449.52 214.11C441.335 214.151 426.179 214.724 403.997 215.839C382.089 216.94 366.278 217.471 356.603 217.427L352.307 217.407L352.211 217.399C351.766 217.362 351.313 217.335 350.853 217.311L350.841 220.151C350.835 221.473 350.641 222.882 349.933 224.033C349.102 225.385 347.744 226.087 346.214 226.08C344.891 226.074 343.761 225.513 342.859 224.765L342.858 224.766C341.949 224.033 341.177 222.921 341.184 221.456L341.221 213.304L341.225 213.252C341.333 210.9 341.397 207.888 341.414 204.207C341.42 202.854 341.926 201.654 342.759 200.664L342.832 200.576L342.913 200.496C343.795 199.621 344.957 199.023 346.337 199.029C347.579 199.035 348.882 199.482 349.777 200.664C350.576 201.719 350.768 203.002 350.763 204.101L350.748 207.444C361.784 207.448 375.416 207.164 391.652 206.588L391.667 206.587L391.681 206.588C405.676 206.252 416.658 205.902 424.634 205.54L424.72 205.537L424.808 205.538L432.456 205.723L442.308 205.768C445.444 205.782 447.793 205.752 449.407 205.688L449.421 202.75C449.427 201.593 449.883 200.393 451.007 199.598C451.975 198.913 453.116 198.767 454.038 198.771C455.849 198.779 457.325 199.673 458.248 201.165L458.35 201.329L458.424 201.506ZM343.796 211.447L343.721 213.368L343.684 221.467L343.694 221.653C343.709 221.774 343.743 221.892 343.789 222.007C343.72 221.834 343.684 221.654 343.685 221.468L343.723 213.368C343.762 212.521 343.792 211.594 343.82 210.586C343.812 210.879 343.805 211.167 343.796 211.447ZM343.791 222.014C343.812 222.067 343.837 222.118 343.864 222.169C343.837 222.118 343.812 222.066 343.791 222.014ZM343.88 222.196C343.907 222.244 343.936 222.291 343.969 222.337C343.936 222.291 343.907 222.244 343.88 222.196ZM344.649 222.994C344.576 222.94 344.502 222.882 344.43 222.821C344.245 222.672 344.096 222.517 343.98 222.355C344.096 222.517 344.244 222.673 344.428 222.822C344.501 222.883 344.575 222.939 344.649 222.994ZM344.897 223.162C344.963 223.203 345.029 223.241 345.094 223.276C345.029 223.241 344.963 223.203 344.897 223.162ZM345.113 223.286C345.174 223.317 345.234 223.346 345.295 223.372C345.234 223.346 345.174 223.317 345.113 223.286ZM345.356 223.398C345.405 223.418 345.454 223.436 345.503 223.453C345.454 223.436 345.405 223.418 345.356 223.398ZM345.572 223.477C345.62 223.491 345.669 223.503 345.718 223.514C345.669 223.503 345.62 223.492 345.572 223.477ZM346.342 223.574C346.386 223.572 346.429 223.572 346.471 223.567C346.429 223.572 346.386 223.572 346.342 223.574ZM346.563 223.553C346.61 223.546 346.656 223.54 346.701 223.53C346.656 223.54 346.61 223.546 346.563 223.553ZM346.884 223.479C346.892 223.477 346.9 223.475 346.907 223.472C346.9 223.475 346.892 223.477 346.884 223.479ZM347.44 223.161C347.444 223.158 347.447 223.154 347.451 223.151C347.447 223.154 347.444 223.158 347.44 223.161ZM347.707 222.865C347.726 222.839 347.744 222.812 347.762 222.785C347.744 222.812 347.726 222.839 347.707 222.865ZM347.84 222.66C347.856 222.631 347.872 222.601 347.888 222.571C347.872 222.601 347.856 222.631 347.84 222.66ZM347.95 222.445C347.967 222.408 347.983 222.37 347.998 222.331C347.983 222.37 347.967 222.408 347.95 222.445ZM348.058 222.175C348.067 222.148 348.076 222.121 348.084 222.093C348.076 222.121 348.067 222.148 348.058 222.175ZM348.139 221.911C348.151 221.867 348.161 221.821 348.172 221.774C348.161 221.821 348.151 221.867 348.139 221.911ZM348.211 221.605C348.218 221.57 348.223 221.533 348.23 221.496C348.223 221.533 348.218 221.57 348.211 221.605ZM346.775 201.57C346.635 201.544 346.486 201.53 346.326 201.529C345.726 201.526 345.174 201.774 344.672 202.272C344.169 202.869 343.916 203.518 343.913 204.218C343.911 204.676 343.907 205.124 343.904 205.562C343.907 205.124 343.912 204.676 343.914 204.219C343.917 203.519 344.171 202.87 344.673 202.272C345.176 201.775 345.727 201.527 346.326 201.53C346.486 201.531 346.636 201.544 346.775 201.57ZM352.031 214.88C351.642 214.852 351.248 214.828 350.85 214.808C351.248 214.828 351.642 214.852 352.031 214.88ZM346.966 201.616C346.925 201.604 346.883 201.594 346.839 201.585C346.883 201.594 346.925 201.604 346.966 201.616ZM376.322 209.564C366.282 209.828 357.479 209.956 349.913 209.943C357.479 209.956 366.282 209.828 376.322 209.564ZM347.165 201.688C347.126 201.671 347.085 201.657 347.044 201.642C347.085 201.657 347.126 201.671 347.165 201.688ZM347.325 201.767C347.29 201.747 347.253 201.73 347.216 201.712C347.253 201.73 347.29 201.747 347.325 201.767ZM347.481 201.871C347.457 201.852 347.431 201.835 347.406 201.819C347.431 201.835 347.457 201.852 347.481 201.871ZM347.623 201.992C347.602 201.971 347.579 201.952 347.557 201.933C347.579 201.952 347.602 201.971 347.623 201.992ZM347.751 202.131C347.731 202.107 347.71 202.083 347.69 202.06C347.711 202.083 347.731 202.107 347.751 202.131ZM347.858 202.28C347.845 202.26 347.832 202.24 347.818 202.22C347.832 202.24 347.845 202.26 347.858 202.28ZM348.214 203.321C348.21 203.295 348.207 203.268 348.203 203.242C348.207 203.268 348.21 203.295 348.214 203.321ZM347.965 202.47C347.951 202.442 347.937 202.414 347.922 202.387C347.937 202.414 347.951 202.442 347.965 202.47ZM348.165 203.049C348.162 203.037 348.16 203.025 348.158 203.013C348.16 203.025 348.162 203.037 348.165 203.049ZM348.05 202.666C348.037 202.631 348.025 202.597 348.011 202.565C348.025 202.597 348.037 202.631 348.05 202.666ZM348.093 202.783C348.099 202.802 348.103 202.821 348.109 202.839C348.103 202.821 348.099 202.802 348.093 202.783ZM359.642 214.922C359.831 214.921 360.022 214.919 360.215 214.917C360.022 214.919 359.831 214.921 359.642 214.922ZM360.962 214.911C361.417 214.906 361.883 214.901 362.358 214.894C361.883 214.901 361.417 214.906 360.962 214.911ZM363.328 214.88C363.617 214.875 363.909 214.87 364.205 214.864C363.909 214.87 363.617 214.875 363.328 214.88ZM365.51 214.841C365.962 214.832 366.421 214.822 366.888 214.812C366.421 214.822 365.962 214.832 365.51 214.841ZM367.807 214.79C368.007 214.786 368.209 214.78 368.412 214.775C368.209 214.78 368.007 214.786 367.807 214.79ZM373.154 214.642C372.871 214.651 372.591 214.66 372.312 214.668C372.591 214.66 372.871 214.651 373.154 214.642ZM382.543 214.309C384.251 214.242 386.018 214.169 387.843 214.091C386.018 214.169 384.251 214.242 382.543 214.309ZM388.94 214.044C390.957 213.957 393.044 213.862 395.202 213.762C393.044 213.862 390.957 213.957 388.94 214.044ZM424.746 208.038C416.744 208.401 405.742 208.751 391.741 209.087C390.41 209.134 389.095 209.177 387.798 209.221C389.095 209.177 390.41 209.135 391.742 209.087C405.744 208.751 416.746 208.401 424.748 208.038L430.598 208.179L424.746 208.038ZM437.738 211.867C436.119 211.92 434.398 211.98 432.574 212.049C434.398 211.98 436.119 211.92 437.738 211.867ZM448.318 208.223C446.737 208.264 444.729 208.279 442.295 208.268L437.744 208.247L442.297 208.268C444.73 208.279 446.737 208.263 448.318 208.223ZM451.899 219.248C451.912 219.302 451.927 219.354 451.946 219.404C451.927 219.354 451.912 219.302 451.899 219.248ZM451.963 219.447C451.98 219.491 452 219.534 452.022 219.576C452 219.534 451.98 219.491 451.963 219.447ZM451.89 217.854C451.877 217.999 451.866 218.149 451.86 218.305L451.847 218.811C451.846 218.958 451.864 219.096 451.893 219.226C451.864 219.096 451.849 218.959 451.849 218.812C451.851 218.468 451.864 218.149 451.89 217.854ZM452.044 219.616C452.069 219.661 452.097 219.704 452.128 219.746C452.097 219.704 452.069 219.661 452.044 219.616ZM452.143 219.767C452.177 219.812 452.214 219.855 452.254 219.896C452.214 219.855 452.177 219.812 452.143 219.767ZM452.593 220.165C452.47 220.09 452.362 220.006 452.269 219.913C452.315 219.959 452.363 220.004 452.416 220.045L452.592 220.164C452.652 220.201 452.714 220.235 452.777 220.267C452.715 220.235 452.653 220.202 452.593 220.165ZM451.935 217.444C451.919 217.559 451.906 217.679 451.895 217.803C451.906 217.679 451.919 217.559 451.935 217.444ZM452.807 220.282C452.858 220.308 452.91 220.333 452.962 220.356C452.91 220.333 452.858 220.308 452.807 220.282ZM452.023 213.712C452.027 212.713 451.929 212.112 451.73 211.911L451.131 211.608C451.069 211.608 451.007 211.609 450.944 211.609L451.13 211.609L451.728 211.911C451.927 212.112 452.026 212.712 452.021 213.711L452.006 217.012C451.982 217.129 451.963 217.252 451.944 217.381C451.963 217.253 451.983 217.129 452.007 217.012L452.015 215.212L452.023 213.712ZM453.008 220.375C453.057 220.396 453.106 220.415 453.156 220.433C453.106 220.415 453.057 220.396 453.008 220.375ZM453.198 220.448C453.253 220.467 453.309 220.485 453.365 220.5C453.309 220.485 453.253 220.467 453.198 220.448ZM453.602 220.558C453.652 220.568 453.703 220.577 453.753 220.584C453.703 220.577 453.652 220.568 453.602 220.558ZM452.911 201.416C452.314 201.61 451.987 201.997 451.929 202.58L451.921 202.761L451.896 208.011C451.299 208.093 450.375 208.155 449.124 208.198C450.376 208.155 451.3 208.094 451.898 208.011L451.922 202.761C451.925 202.078 452.255 201.629 452.911 201.416ZM454.241 220.622C454.096 220.622 453.954 220.612 453.815 220.594C453.881 220.603 453.949 220.61 454.017 220.615L454.24 220.623C454.284 220.623 454.328 220.619 454.37 220.617C454.328 220.619 454.285 220.622 454.241 220.622ZM455.948 219.58C455.96 219.558 455.974 219.537 455.986 219.515C455.974 219.537 455.96 219.558 455.948 219.58ZM456.049 219.389C456.062 219.362 456.076 219.335 456.088 219.307C456.076 219.335 456.062 219.362 456.049 219.389ZM456.138 219.185C456.149 219.155 456.16 219.126 456.17 219.096C456.16 219.126 456.149 219.155 456.138 219.185ZM456.22 218.935C456.223 218.927 456.225 218.919 456.227 218.911C456.225 218.919 456.223 218.927 456.22 218.935ZM453.087 201.367C453.035 201.379 452.985 201.393 452.937 201.408C452.985 201.393 453.035 201.379 453.087 201.367ZM453.307 201.321C453.522 201.286 453.763 201.271 454.029 201.272C454.217 201.273 454.396 201.292 454.566 201.327C454.395 201.292 454.216 201.271 454.027 201.27L453.773 201.276C453.607 201.283 453.451 201.298 453.307 201.321ZM456.123 202.48C456.118 202.472 456.112 202.465 456.107 202.457C456.112 202.465 456.118 202.473 456.123 202.481L456.125 202.483L456.123 202.48ZM344.665 223.006C344.733 223.056 344.801 223.102 344.868 223.145C344.801 223.102 344.733 223.056 344.665 223.006ZM439.51 211.812C438.934 211.829 438.343 211.848 437.738 211.867C438.343 211.848 438.934 211.829 439.51 211.812ZM453.39 220.507C453.452 220.524 453.514 220.54 453.578 220.553C453.514 220.54 453.452 220.524 453.39 220.507ZM453.307 201.321C453.246 201.331 453.188 201.344 453.131 201.356C453.188 201.344 453.246 201.331 453.307 201.321Z" fill="#F68C9E"/>
<path d="M472.071 81.5373C468.169 73.2255 465.008 69.5722 457.344 64.8361C461.012 52.1644 465.697 47.7884 476.314 42.3359C489.294 54.3979 484.801 79.6816 472.071 81.5373Z" fill="#313131"/>
<path d="M475.709 41.3205C476.195 41.0706 476.801 41.1499 477.195 41.5154C484.034 47.8715 486.195 57.6069 485.07 65.9082C484.506 70.0733 483.106 73.9648 480.969 76.9652C478.831 79.9668 475.891 82.1536 472.262 82.6826C471.701 82.7641 471.152 82.4837 470.925 82.0003C468.994 77.888 467.282 75.0056 465.15 72.5788C463.021 70.1568 460.425 68.1335 456.65 65.8013C456.204 65.5254 455.998 65.0155 456.137 64.5345C457.995 58.1165 460.143 53.68 463.255 50.144C466.364 46.6125 470.356 44.0697 475.709 41.3205ZM476.077 43.786C471.259 46.3126 467.841 48.5976 465.187 51.6128C462.506 54.6585 460.535 58.5327 458.784 64.3397C462.29 66.5605 464.893 68.62 467.082 71.1118C469.257 73.5865 470.982 76.4401 472.798 80.2035C475.151 79.5968 477.223 78.0217 478.887 75.6849C480.767 73.0457 482.066 69.5137 482.593 65.6182C483.614 58.0803 481.715 49.5052 476.077 43.786Z" fill="#3A3A3B"/>
<path d="M459.837 32.5926C442.525 32.9584 440.618 42.5669 448.604 59.5C438.621 57.6458 428.989 57.986 421.148 55.1275C414.166 51.8024 412.065 51.7246 415.158 58.3417C420.675 67.0289 433.467 76.006 452.35 90.3522C490.291 118.883 471.819 173.162 413.162 173.162C392.193 173.858 375.398 162.151 351.007 151.358C343.934 148.228 339.911 148.886 335.03 150.662C328.542 112.852 365.485 80.3779 413.162 91.744C387.287 72.4522 379.653 59.7457 382.21 32.5926C387.952 -11.9425 459.837 -6.60735 459.837 32.5926Z" fill="#F8B0BB"/>
<path d="M422.232 127.348C422.921 126.238 424.448 125.858 425.642 126.499C432.16 129.996 435.929 134.891 437.066 140.093C438.199 145.273 436.665 150.523 433.061 154.592C425.738 162.86 410.6 165.773 392.444 156.032C391.25 155.391 390.841 153.972 391.53 152.863C392.219 151.754 393.746 151.374 394.94 152.014C411.729 161.022 423.925 157.607 429.207 151.643C431.905 148.597 432.992 144.755 432.175 141.017C431.362 137.299 428.609 133.447 423.146 130.516C421.952 129.876 421.543 128.457 422.232 127.348Z" fill="#F68C9E"/>
<path d="M398.693 117.836C398.693 117.836 398.691 117.836 398.691 120.387V117.836C397.175 117.836 395.946 118.978 395.946 120.387C395.946 121.708 397.026 122.795 398.411 122.925L398.691 122.939H398.746C398.787 122.939 398.85 122.94 398.933 122.941C399.101 122.943 399.351 122.947 399.672 122.954C400.315 122.97 401.241 123.002 402.355 123.065C404.592 123.192 407.549 123.445 410.494 123.942C413.481 124.447 416.257 125.171 418.248 126.16C420.288 127.174 420.866 128.119 420.912 128.879C420.95 129.525 420.573 130.422 418.575 131.509C416.633 132.566 413.832 133.397 410.775 134.016C407.765 134.625 404.712 134.99 402.394 135.202C401.239 135.308 400.277 135.374 399.608 135.414C399.274 135.434 399.013 135.447 398.838 135.456C398.75 135.46 398.685 135.463 398.642 135.465C398.62 135.466 398.605 135.466 398.595 135.467H398.584C397.08 135.521 395.905 136.692 395.948 138.09C395.991 139.488 397.237 140.592 398.741 140.567C398.744 140.567 398.749 140.568 398.757 140.568C398.774 140.568 398.803 140.567 398.844 140.567C398.925 140.567 399.05 140.568 399.215 140.572C399.545 140.578 400.028 140.594 400.614 140.634C401.797 140.714 403.347 140.887 404.894 141.246C406.466 141.611 407.864 142.13 408.868 142.814C409.818 143.461 410.326 144.182 410.455 145.081C410.495 145.357 410.441 145.969 408.883 146.929C407.375 147.856 405.119 148.655 402.589 149.299C400.106 149.931 397.566 150.362 395.628 150.636C394.664 150.773 393.859 150.869 393.3 150.931C393.02 150.962 392.802 150.984 392.656 150.998C392.583 151.005 392.528 151.01 392.493 151.013C392.476 151.015 392.463 151.016 392.455 151.017C392.452 151.017 392.449 151.017 392.447 151.017C390.937 151.147 389.826 152.391 389.967 153.794C390.107 155.197 391.445 156.229 392.955 156.098L392.701 153.558C392.945 156.002 392.955 156.095 392.956 156.098H392.958C392.96 156.098 392.961 156.098 392.963 156.097C392.967 156.097 392.972 156.097 392.979 156.096C392.992 156.095 393.01 156.094 393.032 156.092C393.078 156.088 393.144 156.081 393.228 156.073C393.397 156.057 393.639 156.032 393.944 155.999C394.555 155.931 395.421 155.828 396.455 155.681C398.512 155.39 401.278 154.923 404.039 154.221C406.752 153.531 409.677 152.561 411.915 151.184C414.102 149.838 416.358 147.609 415.898 144.406C415.547 141.961 414.134 140.163 412.404 138.903C415.515 138.249 418.787 137.308 421.351 135.912C423.988 134.477 426.605 132.126 426.394 128.597C426.19 125.182 423.523 122.995 420.837 121.661C418.1 120.301 414.667 119.46 411.476 118.921C408.243 118.374 405.054 118.105 402.689 117.971C401.502 117.904 400.512 117.87 399.816 117.853C399.467 117.845 399.192 117.84 399.001 117.838C398.905 117.837 398.83 117.836 398.778 117.836H398.693Z" fill="#F8DFDF"/>
<path d="M459.831 32.5938C442.861 33.2896 440.365 41.8722 448.848 59.7332L457.339 64.8363C460.776 52.8873 464.886 47.9523 476.309 42.3361L459.831 32.5938Z" fill="white"/>
<path d="M459.973 31.4399C460.162 31.4592 460.345 31.5182 460.507 31.6139L476.984 41.3562C477.359 41.5779 477.579 41.9683 477.562 42.381C477.544 42.7936 477.291 43.1663 476.899 43.3595C471.261 46.1316 467.55 48.6779 464.818 51.9248C462.083 55.1757 460.251 59.2236 458.55 65.1347C458.447 65.4931 458.165 65.7842 457.793 65.9175C457.42 66.0508 457.002 66.0102 456.667 65.8088L448.176 60.7057C447.972 60.5829 447.81 60.407 447.712 60.2001C445.571 55.6929 444.098 51.7197 443.38 48.2751C442.663 44.837 442.68 41.8403 443.623 39.3419C445.573 34.1737 451.16 31.7871 459.782 31.4336L459.973 31.4399ZM459.503 33.7695C451.414 34.1653 447.376 36.406 445.978 40.1094C445.236 42.0762 445.159 44.6178 445.83 47.8338C446.483 50.9666 447.83 54.659 449.847 58.947L456.596 63.0045C458.221 57.7434 460.079 53.7914 462.851 50.4959C465.551 47.2865 469.056 44.7743 473.861 42.2586L459.503 33.7695Z" fill="#3A3A3B"/>
<path d="M443.41 33.2403C443.41 36.6864 440.616 39.4806 437.17 39.4806C433.724 39.4806 430.93 36.6864 430.93 33.2403C430.93 29.7942 433.724 27 437.17 27C440.616 27 443.41 29.7942 443.41 33.2403Z" fill="white"/>
<path d="M439.418 38.1094C440.797 38.1094 441.914 36.9919 441.914 35.6133C441.914 34.2347 440.797 33.1172 439.418 33.1172C438.039 33.1172 436.922 34.2347 436.922 35.6133C436.922 36.9919 438.039 38.1094 439.418 38.1094Z" fill="#4B454C"/>
<path d="M242.211 128.25C270.537 128.25 295.461 157.813 295.461 197C295.461 236.187 270.537 265.75 242.211 265.75C213.885 265.75 188.961 236.187 188.961 197C188.961 157.813 213.885 128.25 242.211 128.25Z" stroke="#F68C9E" stroke-width="10.5"/>
</svg>
